<?xml version="1.0" encoding="UTF-8" standalone="no"?>
<!DOCTYPE svg PUBLIC "-//W3C//DTD SVG 1.1//EN"
 "http://www.w3.org/Graphics/SVG/1.1/DTD/svg11.dtd">
<!-- Generated by graphviz version 2.38.0 (20140413.2041)
 -->
<!-- Title: controllers_diagram Pages: 1 -->
<svg width="603pt" height="619pt"
 viewBox="0.00 0.00 603.10 618.67" xmlns="http://www.w3.org/2000/svg" xmlns:xlink="http://www.w3.org/1999/xlink">
<g id="graph0" class="graph" transform="scale(1 1) rotate(0) translate(262.409 271.171)">
<title>controllers_diagram</title>
<polygon fill="white" stroke="none" points="-262.409,347.5 -262.409,-271.171 340.688,-271.171 340.688,347.5 -262.409,347.5"/>
<!-- _diagram_info -->
<g id="node1" class="node"><title>_diagram_info</title>
<text text-anchor="start" x="137.312" y="284.9" font-family="Times,serif" font-size="13.00">Controllers diagram</text>
<text text-anchor="start" x="137.312" y="297.9" font-family="Times,serif" font-size="13.00">Date: Jun 25 2014 &#45; 14:35</text>
<text text-anchor="start" x="137.312" y="310.9" font-family="Times,serif" font-size="13.00">Migration version: 20140603143054</text>
<text text-anchor="start" x="137.312" y="323.9" font-family="Times,serif" font-size="13.00">Generated by RailRoady 1.1.1</text>
<text text-anchor="start" x="137.312" y="336.9" font-family="Times,serif" font-size="13.00">http://railroady.prestonlee.com</text>
</g>
<!-- ApplicationController -->
<g id="node2" class="node"><title>ApplicationController</title>
<path fill="none" stroke="black" d="M-96.0633,56.4943C-96.0633,56.4943 70.8684,56.4943 70.8684,56.4943 76.8684,56.4943 82.8684,50.4943 82.8684,44.4943 82.8684,44.4943 82.8684,-37.5057 82.8684,-37.5057 82.8684,-43.5057 76.8684,-49.5057 70.8684,-49.5057 70.8684,-49.5057 -96.0633,-49.5057 -96.0633,-49.5057 -102.063,-49.5057 -108.063,-43.5057 -108.063,-37.5057 -108.063,-37.5057 -108.063,44.4943 -108.063,44.4943 -108.063,50.4943 -102.063,56.4943 -96.0633,56.4943"/>
<text text-anchor="middle" x="-12.5975" y="-34.3057" font-family="Times,serif" font-size="14.00">ApplicationController</text>
<polyline fill="none" stroke="black" points="-108.063,-27.5057 82.8684,-27.5057 "/>
<polyline fill="none" stroke="black" points="-108.063,-3.50567 82.8684,-3.50567 "/>
<polyline fill="none" stroke="black" points="-108.063,20.4943 82.8684,20.4943 "/>
<text text-anchor="start" x="-100.063" y="35.6943" font-family="Times,serif" font-size="14.00">_layout</text>
<text text-anchor="start" x="-100.063" y="49.6943" font-family="Times,serif" font-size="14.00">authenticate_user_from_token!</text>
</g>
<!-- HomeController -->
<g id="node3" class="node"><title>HomeController</title>
<path fill="none" stroke="black" d="M163.922,48.5389C163.922,48.5389 247.681,48.5389 247.681,48.5389 253.681,48.5389 259.681,42.5389 259.681,36.5389 259.681,36.5389 259.681,-29.4611 259.681,-29.4611 259.681,-35.4611 253.681,-41.4611 247.681,-41.4611 247.681,-41.4611 163.922,-41.4611 163.922,-41.4611 157.922,-41.4611 151.922,-35.4611 151.922,-29.4611 151.922,-29.4611 151.922,36.5389 151.922,36.5389 151.922,42.5389 157.922,48.5389 163.922,48.5389"/>
<text text-anchor="middle" x="205.802" y="-26.2611" font-family="Times,serif" font-size="14.00">HomeController</text>
<polyline fill="none" stroke="black" points="151.922,-19.4611 259.681,-19.4611 "/>
<text text-anchor="start" x="159.922" y="-4.2611" font-family="Times,serif" font-size="14.00">index</text>
<polyline fill="none" stroke="black" points="151.922,2.5389 259.681,2.5389 "/>
<polyline fill="none" stroke="black" points="151.922,26.5389 259.681,26.5389 "/>
<text text-anchor="start" x="159.922" y="41.7389" font-family="Times,serif" font-size="14.00">_layout</text>
</g>
<!-- ApplicationController&#45;&gt;HomeController -->
<g id="edge1" class="edge"><title>ApplicationController&#45;&gt;HomeController</title>
<path fill="none" stroke="black" d="M82.878,3.51381C106.523,3.51864 131.04,3.52364 151.9,3.5279"/>
</g>
<!-- PoiController -->
<g id="node4" class="node"><title>PoiController</title>
<path fill="none" stroke="black" d="M-34.22,254.29C-34.22,254.29 34.0007,254.29 34.0007,254.29 40.0007,254.29 46.0007,248.29 46.0007,242.29 46.0007,242.29 46.0007,176.29 46.0007,176.29 46.0007,170.29 40.0007,164.29 34.0007,164.29 34.0007,164.29 -34.22,164.29 -34.22,164.29 -40.22,164.29 -46.22,170.29 -46.22,176.29 -46.22,176.29 -46.22,242.29 -46.22,242.29 -46.22,248.29 -40.22,254.29 -34.22,254.29"/>
<text text-anchor="middle" x="-0.109686" y="179.49" font-family="Times,serif" font-size="14.00">PoiController</text>
<polyline fill="none" stroke="black" points="-46.22,186.29 46.0007,186.29 "/>
<text text-anchor="start" x="-38.22" y="201.49" font-family="Times,serif" font-size="14.00">all</text>
<polyline fill="none" stroke="black" points="-46.22,208.29 46.0007,208.29 "/>
<polyline fill="none" stroke="black" points="-46.22,232.29 46.0007,232.29 "/>
<text text-anchor="start" x="-38.22" y="247.49" font-family="Times,serif" font-size="14.00">_layout</text>
</g>
<!-- ApplicationController&#45;&gt;PoiController -->
<g id="edge2" class="edge"><title>ApplicationController&#45;&gt;PoiController</title>
<path fill="none" stroke="black" d="M-9.36531,56.7595C-7.34183,90.1061 -4.76343,132.598 -2.84222,164.259"/>
</g>
<!-- ReviewController -->
<g id="node5" class="node"><title>ReviewController</title>
<path fill="none" stroke="black" d="M-239.517,-96.9685C-239.517,-96.9685 -147.206,-96.9685 -147.206,-96.9685 -141.206,-96.9685 -135.206,-102.968 -135.206,-108.968 -135.206,-108.968 -135.206,-188.968 -135.206,-188.968 -135.206,-194.968 -141.206,-200.968 -147.206,-200.968 -147.206,-200.968 -239.517,-200.968 -239.517,-200.968 -245.517,-200.968 -251.517,-194.968 -251.517,-188.968 -251.517,-188.968 -251.517,-108.968 -251.517,-108.968 -251.517,-102.968 -245.517,-96.9685 -239.517,-96.9685"/>
<text text-anchor="middle" x="-193.361" y="-185.768" font-family="Times,serif" font-size="14.00">ReviewController</text>
<polyline fill="none" stroke="black" points="-251.517,-178.968 -135.206,-178.968 "/>
<text text-anchor="start" x="-243.517" y="-163.768" font-family="Times,serif" font-size="14.00">review</text>
<polyline fill="none" stroke="black" points="-251.517,-156.968 -135.206,-156.968 "/>
<polyline fill="none" stroke="black" points="-251.517,-132.968 -135.206,-132.968 "/>
<text text-anchor="start" x="-243.517" y="-117.768" font-family="Times,serif" font-size="14.00">_layout</text>
<text text-anchor="start" x="-243.517" y="-103.768" font-family="Times,serif" font-size="14.00">review_params</text>
</g>
<!-- ApplicationController&#45;&gt;ReviewController -->
<g id="edge3" class="edge"><title>ApplicationController&#45;&gt;ReviewController</title>
<path fill="none" stroke="black" d="M-75.5661,-49.6157C-94.9254,-65.9441 -116.138,-83.8357 -135.163,-99.8817"/>
</g>
<!-- RouteController -->
<g id="node6" class="node"><title>RouteController</title>
<path fill="none" stroke="black" d="M168.986,-120.671C168.986,-120.671 251.973,-120.671 251.973,-120.671 257.973,-120.671 263.973,-126.671 263.973,-132.671 263.973,-132.671 263.973,-254.671 263.973,-254.671 263.973,-260.671 257.973,-266.671 251.973,-266.671 251.973,-266.671 168.986,-266.671 168.986,-266.671 162.986,-266.671 156.986,-260.671 156.986,-254.671 156.986,-254.671 156.986,-132.671 156.986,-132.671 156.986,-126.671 162.986,-120.671 168.986,-120.671"/>
<text text-anchor="middle" x="210.479" y="-251.471" font-family="Times,serif" font-size="14.00">RouteController</text>
<polyline fill="none" stroke="black" points="156.986,-244.671 263.973,-244.671 "/>
<text text-anchor="start" x="164.986" y="-229.471" font-family="Times,serif" font-size="14.00">delete</text>
<text text-anchor="start" x="164.986" y="-215.471" font-family="Times,serif" font-size="14.00">find</text>
<text text-anchor="start" x="164.986" y="-201.471" font-family="Times,serif" font-size="14.00">flag</text>
<text text-anchor="start" x="164.986" y="-187.471" font-family="Times,serif" font-size="14.00">record</text>
<text text-anchor="start" x="164.986" y="-173.471" font-family="Times,serif" font-size="14.00">search</text>
<polyline fill="none" stroke="black" points="156.986,-166.671 263.973,-166.671 "/>
<polyline fill="none" stroke="black" points="156.986,-142.671 263.973,-142.671 "/>
<text text-anchor="start" x="164.986" y="-127.471" font-family="Times,serif" font-size="14.00">_layout</text>
</g>
<!-- ApplicationController&#45;&gt;RouteController -->
<g id="edge4" class="edge"><title>ApplicationController&#45;&gt;RouteController</title>
<path fill="none" stroke="black" d="M47.4765,-49.6017C81.5449,-79.7128 123.818,-117.075 156.776,-146.206"/>
</g>
<!-- StatsController -->
<g id="node7" class="node"><title>StatsController</title>
<path fill="none" stroke="black" d="M-38.7483,-143.305C-38.7483,-143.305 38.0242,-143.305 38.0242,-143.305 44.0242,-143.305 50.0242,-149.305 50.0242,-155.305 50.0242,-155.305 50.0242,-249.305 50.0242,-249.305 50.0242,-255.305 44.0242,-261.305 38.0242,-261.305 38.0242,-261.305 -38.7483,-261.305 -38.7483,-261.305 -44.7483,-261.305 -50.7483,-255.305 -50.7483,-249.305 -50.7483,-249.305 -50.7483,-155.305 -50.7483,-155.305 -50.7483,-149.305 -44.7483,-143.305 -38.7483,-143.305"/>
<text text-anchor="middle" x="-0.362024" y="-246.105" font-family="Times,serif" font-size="14.00">StatsController</text>
<polyline fill="none" stroke="black" points="-50.7483,-239.305 50.0242,-239.305 "/>
<text text-anchor="start" x="-42.7483" y="-224.105" font-family="Times,serif" font-size="14.00">days</text>
<text text-anchor="start" x="-42.7483" y="-210.105" font-family="Times,serif" font-size="14.00">hours</text>
<text text-anchor="start" x="-42.7483" y="-196.105" font-family="Times,serif" font-size="14.00">weeks</text>
<polyline fill="none" stroke="black" points="-50.7483,-189.305 50.0242,-189.305 "/>
<polyline fill="none" stroke="black" points="-50.7483,-165.305 50.0242,-165.305 "/>
<text text-anchor="start" x="-42.7483" y="-150.105" font-family="Times,serif" font-size="14.00">_layout</text>
</g>
<!-- ApplicationController&#45;&gt;StatsController -->
<g id="edge5" class="edge"><title>ApplicationController&#45;&gt;StatsController</title>
<path fill="none" stroke="black" d="M-9.43063,-49.7718C-7.73126,-78.3551 -5.63244,-113.657 -3.88204,-143.099"/>
</g>
<!-- UserController -->
<g id="node8" class="node"><title>UserController</title>
<path fill="none" stroke="black" d="M-246.409,257.188C-246.409,257.188 -140.112,257.188 -140.112,257.188 -134.112,257.188 -128.112,251.188 -128.112,245.188 -128.112,245.188 -128.112,67.1877 -128.112,67.1877 -128.112,61.1877 -134.112,55.1877 -140.112,55.1877 -140.112,55.1877 -246.409,55.1877 -246.409,55.1877 -252.409,55.1877 -258.409,61.1877 -258.409,67.1877 -258.409,67.1877 -258.409,245.188 -258.409,245.188 -258.409,251.188 -252.409,257.188 -246.409,257.188"/>
<text text-anchor="middle" x="-193.26" y="70.3877" font-family="Times,serif" font-size="14.00">UserController</text>
<polyline fill="none" stroke="black" points="-258.409,77.1877 -128.112,77.1877 "/>
<text text-anchor="start" x="-250.409" y="92.3877" font-family="Times,serif" font-size="14.00">details</text>
<text text-anchor="start" x="-250.409" y="106.388" font-family="Times,serif" font-size="14.00">forgot_password</text>
<text text-anchor="start" x="-250.409" y="120.388" font-family="Times,serif" font-size="14.00">reset_password</text>
<text text-anchor="start" x="-250.409" y="134.388" font-family="Times,serif" font-size="14.00">save_responses</text>
<text text-anchor="start" x="-250.409" y="148.388" font-family="Times,serif" font-size="14.00">signin</text>
<text text-anchor="start" x="-250.409" y="162.388" font-family="Times,serif" font-size="14.00">signup</text>
<text text-anchor="start" x="-250.409" y="176.388" font-family="Times,serif" font-size="14.00">update_details</text>
<polyline fill="none" stroke="black" points="-258.409,183.188 -128.112,183.188 "/>
<polyline fill="none" stroke="black" points="-258.409,207.188 -128.112,207.188 "/>
<text text-anchor="start" x="-250.409" y="222.388" font-family="Times,serif" font-size="14.00">_layout</text>
<text text-anchor="start" x="-250.409" y="236.388" font-family="Times,serif" font-size="14.00">failure</text>
<text text-anchor="start" x="-250.409" y="250.388" font-family="Times,serif" font-size="14.00">user_details_params</text>
</g>
<!-- ApplicationController&#45;&gt;UserController -->
<g id="edge6" class="edge"><title>ApplicationController&#45;&gt;UserController</title>
<path fill="none" stroke="black" d="M-75.531,56.6847C-92.5373,71.0582 -110.975,86.6412 -128.1,101.115"/>
</g>
<!-- WeatherController -->
<g id="node9" class="node"><title>WeatherController</title>
<path fill="none" stroke="black" d="M162.67,245.749C162.67,245.749 258.508,245.749 258.508,245.749 264.508,245.749 270.508,239.749 270.508,233.749 270.508,233.749 270.508,167.749 270.508,167.749 270.508,161.749 264.508,155.749 258.508,155.749 258.508,155.749 162.67,155.749 162.67,155.749 156.67,155.749 150.67,161.749 150.67,167.749 150.67,167.749 150.67,233.749 150.67,233.749 150.67,239.749 156.67,245.749 162.67,245.749"/>
<text text-anchor="middle" x="210.589" y="170.949" font-family="Times,serif" font-size="14.00">WeatherController</text>
<polyline fill="none" stroke="black" points="150.67,177.749 270.508,177.749 "/>
<text text-anchor="start" x="158.67" y="192.949" font-family="Times,serif" font-size="14.00">retrieve</text>
<polyline fill="none" stroke="black" points="150.67,199.749 270.508,199.749 "/>
<polyline fill="none" stroke="black" points="150.67,223.749 270.508,223.749 "/>
<text text-anchor="start" x="158.67" y="238.949" font-family="Times,serif" font-size="14.00">_layout</text>
</g>
<!-- ApplicationController&#45;&gt;WeatherController -->
<g id="edge7" class="edge"><title>ApplicationController&#45;&gt;WeatherController</title>
<path fill="none" stroke="black" d="M47.5059,56.6143C82.4947,87.5379 126.133,126.106 159.462,155.563"/>
</g>
</g>
</svg>
