<?xml version="1.0" encoding="UTF-8" standalone="no"?>
<!DOCTYPE svg PUBLIC "-//W3C//DTD SVG 1.1//EN"
 "http://www.w3.org/Graphics/SVG/1.1/DTD/svg11.dtd">
<!-- Generated by graphviz version 2.38.0 (20140413.2041)
 -->
<!-- Title: controllers_diagram Pages: 1 -->
<svg width="746pt" height="542pt"
 viewBox="0.00 0.00 745.99 542.18" xmlns="http://www.w3.org/2000/svg" xmlns:xlink="http://www.w3.org/1999/xlink">
<g id="graph0" class="graph" transform="scale(1 1) rotate(0) translate(231.539 234.684)">
<title>controllers_diagram</title>
<polygon fill="white" stroke="none" points="-231.539,307.5 -231.539,-234.684 514.45,-234.684 514.45,307.5 -231.539,307.5"/>
<!-- _diagram_info -->
<g id="node1" class="node"><title>_diagram_info</title>
<text text-anchor="start" x="311.55" y="244.9" font-family="Times,serif" font-size="13.00">Controllers diagram</text>
<text text-anchor="start" x="311.55" y="257.9" font-family="Times,serif" font-size="13.00">Date: Apr 16 2015 &#45; 14:41</text>
<text text-anchor="start" x="311.55" y="270.9" font-family="Times,serif" font-size="13.00">Migration version: 20150108135117</text>
<text text-anchor="start" x="311.55" y="283.9" font-family="Times,serif" font-size="13.00">Generated by RailRoady 1.1.1</text>
<text text-anchor="start" x="311.55" y="296.9" font-family="Times,serif" font-size="13.00">http://railroady.prestonlee.com</text>
</g>
<!-- ApplicationController -->
<g id="node2" class="node"><title>ApplicationController</title>
<path fill="none" stroke="black" d="M-73.2503,67.1958C-73.2503,67.1958 54.7917,67.1958 54.7917,67.1958 60.7917,67.1958 66.7917,61.1958 66.7917,55.1958 66.7917,55.1958 66.7917,-40.8042 66.7917,-40.8042 66.7917,-46.8042 60.7917,-52.8042 54.7917,-52.8042 54.7917,-52.8042 -73.2503,-52.8042 -73.2503,-52.8042 -79.2503,-52.8042 -85.2503,-46.8042 -85.2503,-40.8042 -85.2503,-40.8042 -85.2503,55.1958 -85.2503,55.1958 -85.2503,61.1958 -79.2503,67.1958 -73.2503,67.1958"/>
<text text-anchor="middle" x="-9.22927" y="-37.6042" font-family="Times,serif" font-size="14.00">ApplicationController</text>
<polyline fill="none" stroke="black" points="-85.2503,-30.8042 66.7917,-30.8042 "/>
<polyline fill="none" stroke="black" points="-85.2503,-6.80422 66.7917,-6.80422 "/>
<polyline fill="none" stroke="black" points="-85.2503,17.1958 66.7917,17.1958 "/>
<text text-anchor="start" x="-77.2503" y="32.3958" font-family="Times,serif" font-size="14.00">_layout</text>
<text text-anchor="start" x="-77.2503" y="46.3958" font-family="Times,serif" font-size="14.00">current_resource_owner</text>
<text text-anchor="start" x="-77.2503" y="60.3958" font-family="Times,serif" font-size="14.00">current_user</text>
</g>
<!-- HomeController -->
<g id="node3" class="node"><title>HomeController</title>
<path fill="none" stroke="black" d="M129.667,52.953C129.667,52.953 213.426,52.953 213.426,52.953 219.426,52.953 225.426,46.953 225.426,40.953 225.426,40.953 225.426,-25.047 225.426,-25.047 225.426,-31.047 219.426,-37.047 213.426,-37.047 213.426,-37.047 129.667,-37.047 129.667,-37.047 123.667,-37.047 117.667,-31.047 117.667,-25.047 117.667,-25.047 117.667,40.953 117.667,40.953 117.667,46.953 123.667,52.953 129.667,52.953"/>
<text text-anchor="middle" x="171.547" y="-21.847" font-family="Times,serif" font-size="14.00">HomeController</text>
<polyline fill="none" stroke="black" points="117.667,-15.047 225.426,-15.047 "/>
<text text-anchor="start" x="125.667" y="0.152996" font-family="Times,serif" font-size="14.00">index</text>
<polyline fill="none" stroke="black" points="117.667,6.953 225.426,6.953 "/>
<polyline fill="none" stroke="black" points="117.667,30.953 225.426,30.953 "/>
<text text-anchor="start" x="125.667" y="46.153" font-family="Times,serif" font-size="14.00">_layout</text>
</g>
<!-- ApplicationController&#45;&gt;HomeController -->
<g id="edge1" class="edge"><title>ApplicationController&#45;&gt;HomeController</title>
<path fill="none" stroke="black" d="M66.912,7.51471C83.8949,7.58585 101.566,7.65987 117.446,7.72638"/>
</g>
<!-- PoiController -->
<g id="node4" class="node"><title>PoiController</title>
<path fill="none" stroke="black" d="M-37.8213,223.553C-37.8213,223.553 30.3994,223.553 30.3994,223.553 36.3994,223.553 42.3994,217.553 42.3994,211.553 42.3994,211.553 42.3994,145.553 42.3994,145.553 42.3994,139.553 36.3994,133.553 30.3994,133.553 30.3994,133.553 -37.8213,133.553 -37.8213,133.553 -43.8213,133.553 -49.8213,139.553 -49.8213,145.553 -49.8213,145.553 -49.8213,211.553 -49.8213,211.553 -49.8213,217.553 -43.8213,223.553 -37.8213,223.553"/>
<text text-anchor="middle" x="-3.71093" y="148.753" font-family="Times,serif" font-size="14.00">PoiController</text>
<polyline fill="none" stroke="black" points="-49.8213,155.553 42.3994,155.553 "/>
<text text-anchor="start" x="-41.8213" y="170.753" font-family="Times,serif" font-size="14.00">all</text>
<polyline fill="none" stroke="black" points="-49.8213,177.553 42.3994,177.553 "/>
<polyline fill="none" stroke="black" points="-49.8213,201.553 42.3994,201.553 "/>
<text text-anchor="start" x="-41.8213" y="216.753" font-family="Times,serif" font-size="14.00">_layout</text>
</g>
<!-- ApplicationController&#45;&gt;PoiController -->
<g id="edge2" class="edge"><title>ApplicationController&#45;&gt;PoiController</title>
<path fill="none" stroke="black" d="M-7.28371,67.6099C-6.58552,89.2902 -5.811,113.341 -5.16208,133.491"/>
</g>
<!-- ReviewController -->
<g id="node5" class="node"><title>ReviewController</title>
<path fill="none" stroke="black" d="M-209.336,-71.9856C-209.336,-71.9856 -117.026,-71.9856 -117.026,-71.9856 -111.026,-71.9856 -105.026,-77.9856 -105.026,-83.9856 -105.026,-83.9856 -105.026,-149.986 -105.026,-149.986 -105.026,-155.986 -111.026,-161.986 -117.026,-161.986 -117.026,-161.986 -209.336,-161.986 -209.336,-161.986 -215.336,-161.986 -221.336,-155.986 -221.336,-149.986 -221.336,-149.986 -221.336,-83.9856 -221.336,-83.9856 -221.336,-77.9856 -215.336,-71.9856 -209.336,-71.9856"/>
<text text-anchor="middle" x="-163.181" y="-146.786" font-family="Times,serif" font-size="14.00">ReviewController</text>
<polyline fill="none" stroke="black" points="-221.336,-139.986 -105.026,-139.986 "/>
<text text-anchor="start" x="-213.336" y="-124.786" font-family="Times,serif" font-size="14.00">review</text>
<polyline fill="none" stroke="black" points="-221.336,-117.986 -105.026,-117.986 "/>
<polyline fill="none" stroke="black" points="-221.336,-93.9856 -105.026,-93.9856 "/>
<text text-anchor="start" x="-213.336" y="-78.7856" font-family="Times,serif" font-size="14.00">_layout</text>
</g>
<!-- ApplicationController&#45;&gt;ReviewController -->
<g id="edge3" class="edge"><title>ApplicationController&#45;&gt;ReviewController</title>
<path fill="none" stroke="black" d="M-83.9504,-53.0761C-91.7647,-59.3793 -99.61,-65.7075 -107.164,-71.8006"/>
</g>
<!-- RouteController -->
<g id="node6" class="node"><title>RouteController</title>
<path fill="none" stroke="black" d="M129.126,-83.3152C129.126,-83.3152 212.112,-83.3152 212.112,-83.3152 218.112,-83.3152 224.112,-89.3152 224.112,-95.3152 224.112,-95.3152 224.112,-217.315 224.112,-217.315 224.112,-223.315 218.112,-229.315 212.112,-229.315 212.112,-229.315 129.126,-229.315 129.126,-229.315 123.126,-229.315 117.126,-223.315 117.126,-217.315 117.126,-217.315 117.126,-95.3152 117.126,-95.3152 117.126,-89.3152 123.126,-83.3152 129.126,-83.3152"/>
<text text-anchor="middle" x="170.619" y="-214.115" font-family="Times,serif" font-size="14.00">RouteController</text>
<polyline fill="none" stroke="black" points="117.126,-207.315 224.112,-207.315 "/>
<text text-anchor="start" x="125.126" y="-192.115" font-family="Times,serif" font-size="14.00">delete</text>
<text text-anchor="start" x="125.126" y="-178.115" font-family="Times,serif" font-size="14.00">find</text>
<text text-anchor="start" x="125.126" y="-164.115" font-family="Times,serif" font-size="14.00">flag</text>
<text text-anchor="start" x="125.126" y="-150.115" font-family="Times,serif" font-size="14.00">record</text>
<text text-anchor="start" x="125.126" y="-136.115" font-family="Times,serif" font-size="14.00">search</text>
<polyline fill="none" stroke="black" points="117.126,-129.315 224.112,-129.315 "/>
<polyline fill="none" stroke="black" points="117.126,-105.315 224.112,-105.315 "/>
<text text-anchor="start" x="125.126" y="-90.1152" font-family="Times,serif" font-size="14.00">_layout</text>
</g>
<!-- ApplicationController&#45;&gt;RouteController -->
<g id="edge4" class="edge"><title>ApplicationController&#45;&gt;RouteController</title>
<path fill="none" stroke="black" d="M56.9735,-52.9931C76.7045,-70.9317 98.0766,-90.3623 116.906,-107.481"/>
</g>
<!-- StatsController -->
<g id="node7" class="node"><title>StatsController</title>
<path fill="none" stroke="black" d="M-44.1557,-98.1839C-44.1557,-98.1839 32.6168,-98.1839 32.6168,-98.1839 38.6168,-98.1839 44.6168,-104.184 44.6168,-110.184 44.6168,-110.184 44.6168,-218.184 44.6168,-218.184 44.6168,-224.184 38.6168,-230.184 32.6168,-230.184 32.6168,-230.184 -44.1557,-230.184 -44.1557,-230.184 -50.1557,-230.184 -56.1557,-224.184 -56.1557,-218.184 -56.1557,-218.184 -56.1557,-110.184 -56.1557,-110.184 -56.1557,-104.184 -50.1557,-98.1839 -44.1557,-98.1839"/>
<text text-anchor="middle" x="-5.76948" y="-214.984" font-family="Times,serif" font-size="14.00">StatsController</text>
<polyline fill="none" stroke="black" points="-56.1557,-208.184 44.6168,-208.184 "/>
<text text-anchor="start" x="-48.1557" y="-192.984" font-family="Times,serif" font-size="14.00">days</text>
<text text-anchor="start" x="-48.1557" y="-178.984" font-family="Times,serif" font-size="14.00">hours</text>
<text text-anchor="start" x="-48.1557" y="-164.984" font-family="Times,serif" font-size="14.00">overview</text>
<text text-anchor="start" x="-48.1557" y="-150.984" font-family="Times,serif" font-size="14.00">weeks</text>
<polyline fill="none" stroke="black" points="-56.1557,-144.184 44.6168,-144.184 "/>
<polyline fill="none" stroke="black" points="-56.1557,-120.184 44.6168,-120.184 "/>
<text text-anchor="start" x="-48.1557" y="-104.984" font-family="Times,serif" font-size="14.00">_layout</text>
</g>
<!-- ApplicationController&#45;&gt;StatsController -->
<g id="edge5" class="edge"><title>ApplicationController&#45;&gt;StatsController</title>
<path fill="none" stroke="black" d="M-8.00947,-53.2263C-7.71765,-67.6817 -7.40456,-83.1907 -7.1077,-97.8953"/>
</g>
<!-- UserController -->
<g id="node8" class="node"><title>UserController</title>
<path fill="none" stroke="black" d="M-215.539,227.386C-215.539,227.386 -109.242,227.386 -109.242,227.386 -103.242,227.386 -97.2424,221.386 -97.2424,215.386 -97.2424,215.386 -97.2424,51.3859 -97.2424,51.3859 -97.2424,45.3859 -103.242,39.3859 -109.242,39.3859 -109.242,39.3859 -215.539,39.3859 -215.539,39.3859 -221.539,39.3859 -227.539,45.3859 -227.539,51.3859 -227.539,51.3859 -227.539,215.386 -227.539,215.386 -227.539,221.386 -221.539,227.386 -215.539,227.386"/>
<text text-anchor="middle" x="-162.391" y="54.5859" font-family="Times,serif" font-size="14.00">UserController</text>
<polyline fill="none" stroke="black" points="-227.539,61.3859 -97.2424,61.3859 "/>
<text text-anchor="start" x="-219.539" y="76.5859" font-family="Times,serif" font-size="14.00">details</text>
<text text-anchor="start" x="-219.539" y="90.5859" font-family="Times,serif" font-size="14.00">forgot_password</text>
<text text-anchor="start" x="-219.539" y="104.586" font-family="Times,serif" font-size="14.00">reset_password</text>
<text text-anchor="start" x="-219.539" y="118.586" font-family="Times,serif" font-size="14.00">save_responses</text>
<text text-anchor="start" x="-219.539" y="132.586" font-family="Times,serif" font-size="14.00">signup</text>
<text text-anchor="start" x="-219.539" y="146.586" font-family="Times,serif" font-size="14.00">update_details</text>
<polyline fill="none" stroke="black" points="-227.539,153.386 -97.2424,153.386 "/>
<polyline fill="none" stroke="black" points="-227.539,177.386 -97.2424,177.386 "/>
<text text-anchor="start" x="-219.539" y="192.586" font-family="Times,serif" font-size="14.00">_layout</text>
<text text-anchor="start" x="-219.539" y="206.586" font-family="Times,serif" font-size="14.00">failure</text>
<text text-anchor="start" x="-219.539" y="220.586" font-family="Times,serif" font-size="14.00">user_details_params</text>
</g>
<!-- ApplicationController&#45;&gt;UserController -->
<g id="edge6" class="edge"><title>ApplicationController&#45;&gt;UserController</title>
<path fill="none" stroke="black" d="M-82.2215,67.3342C-87.1526,71.3969 -92.1035,75.476 -96.9923,79.5039"/>
</g>
<!-- WeatherController -->
<g id="node9" class="node"><title>WeatherController</title>
<path fill="none" stroke="black" d="M123.553,216.844C123.553,216.844 219.391,216.844 219.391,216.844 225.391,216.844 231.391,210.844 231.391,204.844 231.391,204.844 231.391,138.844 231.391,138.844 231.391,132.844 225.391,126.844 219.391,126.844 219.391,126.844 123.553,126.844 123.553,126.844 117.553,126.844 111.553,132.844 111.553,138.844 111.553,138.844 111.553,204.844 111.553,204.844 111.553,210.844 117.553,216.844 123.553,216.844"/>
<text text-anchor="middle" x="171.472" y="142.044" font-family="Times,serif" font-size="14.00">WeatherController</text>
<polyline fill="none" stroke="black" points="111.553,148.844 231.391,148.844 "/>
<text text-anchor="start" x="119.553" y="164.044" font-family="Times,serif" font-size="14.00">retrieve</text>
<polyline fill="none" stroke="black" points="111.553,170.844 231.391,170.844 "/>
<polyline fill="none" stroke="black" points="111.553,194.844 231.391,194.844 "/>
<text text-anchor="start" x="119.553" y="210.044" font-family="Times,serif" font-size="14.00">_layout</text>
</g>
<!-- ApplicationController&#45;&gt;WeatherController -->
<g id="edge7" class="edge"><title>ApplicationController&#45;&gt;WeatherController</title>
<path fill="none" stroke="black" d="M56.7752,67.3364C78.3507,86.9951 101.928,108.478 122.064,126.825"/>
</g>
</g>
</svg>
