<?xml version="1.0" encoding="UTF-8" standalone="no"?>
<!DOCTYPE svg PUBLIC "-//W3C//DTD SVG 1.1//EN"
 "http://www.w3.org/Graphics/SVG/1.1/DTD/svg11.dtd">
<!-- Generated by graphviz version 2.38.0 (20140413.2041)
 -->
<!-- Title: models_diagram Pages: 1 -->
<svg width="981pt" height="326pt"
 viewBox="0.00 0.00 981.46 326.00" xmlns="http://www.w3.org/2000/svg" xmlns:xlink="http://www.w3.org/1999/xlink">
<g id="graph0" class="graph" transform="scale(1 1) rotate(0) translate(4 322)">
<title>models_diagram</title>
<polygon fill="white" stroke="none" points="-4,4 -4,-322 977.464,-322 977.464,4 -4,4"/>
<!-- _diagram_info -->
<g id="node1" class="node"><title>_diagram_info</title>
<text text-anchor="start" x="336.338" y="-303.6" font-family="Times,serif" font-size="13.00">Models diagram</text>
<text text-anchor="start" x="336.338" y="-290.6" font-family="Times,serif" font-size="13.00">Date: Jun 25 2014 &#45; 14:35</text>
<text text-anchor="start" x="336.338" y="-277.6" font-family="Times,serif" font-size="13.00">Migration version: 20140603143054</text>
<text text-anchor="start" x="336.338" y="-264.6" font-family="Times,serif" font-size="13.00">Generated by RailRoady 1.1.1</text>
<text text-anchor="start" x="336.338" y="-251.6" font-family="Times,serif" font-size="13.00">http://railroady.prestonlee.com</text>
</g>
<!-- Accident -->
<g id="node2" class="node"><title>Accident</title>
<ellipse fill="none" stroke="black" cx="42.0262" cy="-190" rx="42.0524" ry="18"/>
<text text-anchor="middle" x="42.0262" y="-185.8" font-family="Times,serif" font-size="14.00">Accident</text>
</g>
<!-- Attraction -->
<g id="node3" class="node"><title>Attraction</title>
<ellipse fill="none" stroke="black" cx="148.026" cy="-190" rx="45.92" ry="18"/>
<text text-anchor="middle" x="148.026" y="-185.8" font-family="Times,serif" font-size="14.00">Attraction</text>
</g>
<!-- Events -->
<g id="node4" class="node"><title>Events</title>
<ellipse fill="none" stroke="black" cx="246.026" cy="-190" rx="34.3527" ry="18"/>
<text text-anchor="middle" x="246.026" y="-185.8" font-family="Times,serif" font-size="14.00">Events</text>
</g>
<!-- Flagging -->
<g id="node5" class="node"><title>Flagging</title>
<ellipse fill="none" stroke="black" cx="572.026" cy="-18" rx="41.6025" ry="18"/>
<text text-anchor="middle" x="572.026" y="-13.8" font-family="Times,serif" font-size="14.00">Flagging</text>
</g>
<!-- Hour -->
<g id="node6" class="node"><title>Hour</title>
<ellipse fill="none" stroke="black" cx="799.026" cy="-18" rx="28.0651" ry="18"/>
<text text-anchor="middle" x="799.026" y="-13.8" font-family="Times,serif" font-size="14.00">Hour</text>
</g>
<!-- Route -->
<g id="node7" class="node"><title>Route</title>
<ellipse fill="none" stroke="black" cx="509.026" cy="-190" rx="31.4636" ry="18"/>
<text text-anchor="middle" x="509.026" y="-185.8" font-family="Times,serif" font-size="14.00">Route</text>
</g>
<!-- Route&#45;&gt;Flagging -->
<g id="edge8" class="edge"><title>Route&#45;&gt;Flagging</title>
<path fill="none" stroke="#ee2c9f" d="M502.593,-163.977C501.946,-160.642 501.393,-157.252 501.026,-154 495.824,-107.891 504.829,-92.299 531.026,-54 534.411,-49.0514 538.669,-44.3877 543.152,-40.1762"/>
<ellipse fill="none" stroke="#ee2c9f" cx="503.495" cy="-168.133" rx="4.00001" ry="4.00001"/>
<polygon fill="#ee2c9f" stroke="#ee2c9f" points="543.24,-40.0995 553.743,-36.9438 547.017,-36.8223 550.793,-33.5452 550.793,-33.5452 550.793,-33.5452 547.017,-36.8223 547.844,-30.1465 543.24,-40.0995 543.24,-40.0995"/>
</g>
<!-- RoutePoint -->
<g id="node8" class="node"><title>RoutePoint</title>
<ellipse fill="none" stroke="black" cx="365.026" cy="-104" rx="49.8136" ry="18"/>
<text text-anchor="middle" x="365.026" y="-99.8" font-family="Times,serif" font-size="14.00">RoutePoint</text>
</g>
<!-- Route&#45;&gt;RoutePoint -->
<g id="edge7" class="edge"><title>Route&#45;&gt;RoutePoint</title>
<path fill="none" stroke="#8ede93" d="M471.414,-182.342C449.877,-177.192 423.173,-168.428 402.799,-154 394.081,-147.826 386.436,-139.054 380.346,-130.634"/>
<ellipse fill="none" stroke="#8ede93" cx="475.489" cy="-183.262" rx="4.00001" ry="4.00001"/>
<polygon fill="#8ede93" stroke="#8ede93" points="380.184,-130.395 378.31,-119.591 377.383,-126.253 374.582,-122.111 374.582,-122.111 374.582,-122.111 377.383,-126.253 370.855,-124.632 380.184,-130.395 380.184,-130.395"/>
<text text-anchor="middle" x="420.14" y="-142.8" font-family="Times,serif" font-size="14.00">points</text>
</g>
<!-- RouteReview -->
<g id="node9" class="node"><title>RouteReview</title>
<ellipse fill="none" stroke="black" cx="451.026" cy="-18" rx="58.491" ry="18"/>
<text text-anchor="middle" x="451.026" y="-13.8" font-family="Times,serif" font-size="14.00">RouteReview</text>
</g>
<!-- Route&#45;&gt;RouteReview -->
<g id="edge6" class="edge"><title>Route&#45;&gt;RouteReview</title>
<path fill="none" stroke="#bf5f64" d="M480.394,-171.7C474.383,-166.732 468.745,-160.79 465.026,-154 446.151,-119.539 445.926,-72.6937 448.062,-44.2188"/>
<ellipse fill="none" stroke="#bf5f64" cx="483.802" cy="-174.285" rx="4.00002" ry="4.00002"/>
<ellipse fill="#bf5f64" stroke="#bf5f64" cx="448.433" cy="-39.9903" rx="4" ry="4"/>
<text text-anchor="middle" x="472.071" y="-99.8" font-family="Times,serif" font-size="14.00">review</text>
</g>
<!-- User -->
<g id="node10" class="node"><title>User</title>
<ellipse fill="none" stroke="black" cx="605.026" cy="-104" rx="27" ry="18"/>
<text text-anchor="middle" x="605.026" y="-99.8" font-family="Times,serif" font-size="14.00">User</text>
</g>
<!-- Route&#45;&gt;User -->
<g id="edge9" class="edge"><title>Route&#45;&gt;User</title>
<path fill="none" stroke="#4989a9" d="M503.928,-161.982C503.855,-154.291 505.239,-146.3 509.702,-140 516.969,-129.741 545.727,-120.05 569.773,-113.477"/>
<polygon fill="#4989a9" stroke="#4989a9" points="503.941,-162.133 500.295,-172.475 504.36,-167.116 504.779,-172.098 504.779,-172.098 504.779,-172.098 504.36,-167.116 509.263,-171.721 503.941,-162.133 503.941,-162.133"/>
<polygon fill="#4989a9" stroke="#4989a9" points="570.044,-113.406 580.86,-115.211 574.879,-112.133 579.714,-110.859 579.714,-110.859 579.714,-110.859 574.879,-112.133 578.568,-106.508 570.044,-113.406 570.044,-113.406"/>
<text text-anchor="middle" x="532.188" y="-142.8" font-family="Times,serif" font-size="14.00">flaggers</text>
</g>
<!-- User&#45;&gt;Flagging -->
<g id="edge16" class="edge"><title>User&#45;&gt;Flagging</title>
<path fill="none" stroke="#8764fd" d="M601.75,-77.6615C600.246,-69.886 598.091,-61.4264 595.026,-54 593.653,-50.673 591.952,-47.324 590.099,-44.086"/>
<ellipse fill="none" stroke="#8764fd" cx="602.461" cy="-81.8067" rx="4.00001" ry="4.00001"/>
<polygon fill="#8764fd" stroke="#8764fd" points="589.942,-43.8359 588.441,-32.9733 587.286,-39.6001 584.629,-35.3644 584.629,-35.3644 584.629,-35.3644 587.286,-39.6001 580.817,-37.7555 589.942,-43.8359 589.942,-43.8359"/>
</g>
<!-- User&#45;&gt;Hour -->
<g id="edge18" class="edge"><title>User&#45;&gt;Hour</title>
<path fill="none" stroke="#d26c8a" d="M635.083,-90.4605C666.762,-77.1775 718.064,-55.4756 762.026,-36 763.82,-35.2054 765.659,-34.3834 767.514,-33.5491"/>
<ellipse fill="none" stroke="#d26c8a" cx="631.158" cy="-92.1045" rx="4.00001" ry="4.00001"/>
<polygon fill="#d26c8a" stroke="#d26c8a" points="767.661,-33.4822 778.627,-33.4442 772.213,-31.4146 776.766,-29.347 776.766,-29.347 776.766,-29.347 772.213,-31.4146 774.905,-25.2498 767.661,-33.4822 767.661,-33.4822"/>
<text text-anchor="middle" x="732.471" y="-56.8" font-family="Times,serif" font-size="14.00">stats</text>
</g>
<!-- User&#45;&gt;Route -->
<g id="edge14" class="edge"><title>User&#45;&gt;Route</title>
<path fill="none" stroke="#5a2675" d="M584.936,-125.241C575.726,-134.273 564.538,-144.906 554.026,-154 548.263,-158.986 541.895,-164.139 535.809,-168.908"/>
<ellipse fill="none" stroke="#5a2675" cx="587.831" cy="-122.38" rx="4.00002" ry="4.00002"/>
<polygon fill="#5a2675" stroke="#5a2675" points="535.68,-169.007 525.015,-171.559 531.723,-172.064 527.766,-175.12 527.766,-175.12 527.766,-175.12 531.723,-172.064 530.516,-178.682 535.68,-169.007 535.68,-169.007"/>
</g>
<!-- User&#45;&gt;Route -->
<g id="edge17" class="edge"><title>User&#45;&gt;Route</title>
<path fill="none" stroke="#1787b2" d="M593.464,-130.5C588.875,-138.705 583.009,-147.377 576.026,-154 566.801,-162.748 554.964,-169.888 543.812,-175.383"/>
<polygon fill="#1787b2" stroke="#1787b2" points="593.492,-130.447 602.089,-123.639 595.793,-126.007 598.094,-121.568 598.094,-121.568 598.094,-121.568 595.793,-126.007 594.098,-119.497 593.492,-130.447 593.492,-130.447"/>
<polygon fill="#1787b2" stroke="#1787b2" points="543.753,-175.41 532.788,-175.528 539.216,-177.511 534.678,-179.611 534.678,-179.611 534.678,-179.611 539.216,-177.511 536.569,-183.695 543.753,-175.41 543.753,-175.41"/>
<text text-anchor="middle" x="628.24" y="-142.8" font-family="Times,serif" font-size="14.00">flagged_routes</text>
</g>
<!-- User&#45;&gt;RouteReview -->
<g id="edge13" class="edge"><title>User&#45;&gt;RouteReview</title>
<path fill="none" stroke="#9599b0" d="M577.468,-87.9681C552.365,-74.2756 515.113,-53.9565 487.54,-38.9169"/>
<ellipse fill="none" stroke="#9599b0" cx="581.065" cy="-89.93" rx="4.00002" ry="4.00002"/>
<polygon fill="#9599b0" stroke="#9599b0" points="487.371,-38.8246 480.747,-30.0855 482.982,-36.4304 478.592,-34.0361 478.592,-34.0361 478.592,-34.0361 482.982,-36.4304 476.437,-37.9866 487.371,-38.8246 487.371,-38.8246"/>
<text text-anchor="middle" x="559.795" y="-56.8" font-family="Times,serif" font-size="14.00">reviews</text>
</g>
<!-- UserResponse -->
<g id="node11" class="node"><title>UserResponse</title>
<ellipse fill="none" stroke="black" cx="692.026" cy="-18" rx="60.9046" ry="18"/>
<text text-anchor="middle" x="692.026" y="-13.8" font-family="Times,serif" font-size="14.00">UserResponse</text>
</g>
<!-- User&#45;&gt;UserResponse -->
<g id="edge15" class="edge"><title>User&#45;&gt;UserResponse</title>
<path fill="none" stroke="#994972" d="M625.901,-82.8453C638.492,-70.6881 654.588,-55.1471 667.747,-42.442"/>
<ellipse fill="none" stroke="#994972" cx="622.662" cy="-85.9722" rx="4.00002" ry="4.00002"/>
<polygon fill="#994972" stroke="#994972" points="667.913,-42.2821 678.232,-38.5735 671.51,-38.8092 675.107,-35.3362 675.107,-35.3362 675.107,-35.3362 671.51,-38.8092 671.981,-32.0988 667.913,-42.2821 667.913,-42.2821"/>
</g>
<!-- Weather -->
<g id="node12" class="node"><title>Weather</title>
<ellipse fill="none" stroke="black" cx="866.026" cy="-190" rx="39.1985" ry="18"/>
<text text-anchor="middle" x="866.026" y="-185.8" font-family="Times,serif" font-size="14.00">Weather</text>
</g>
<!-- WeatherPeriod -->
<g id="node13" class="node"><title>WeatherPeriod</title>
<ellipse fill="none" stroke="black" cx="911.026" cy="-104" rx="62.3758" ry="18"/>
<text text-anchor="middle" x="911.026" y="-99.8" font-family="Times,serif" font-size="14.00">WeatherPeriod</text>
</g>
<!-- Weather&#45;&gt;WeatherPeriod -->
<g id="edge21" class="edge"><title>Weather&#45;&gt;WeatherPeriod</title>
<path fill="none" stroke="#e7e11d" d="M878.822,-165.114C884.545,-154.431 891.304,-141.814 897.149,-130.905"/>
<ellipse fill="none" stroke="#e7e11d" cx="876.806" cy="-168.878" rx="4.00002" ry="4.00002"/>
<polygon fill="#e7e11d" stroke="#e7e11d" points="897.278,-130.664 905.967,-123.974 899.639,-126.256 902,-121.849 902,-121.849 902,-121.849 899.639,-126.256 898.033,-119.724 897.278,-130.664 897.278,-130.664"/>
</g>
<!-- ActiveRecord::Base -->
<g id="node14" class="node"><title>ActiveRecord::Base</title>
<ellipse fill="none" stroke="black" cx="635.026" cy="-281.5" rx="81.1422" ry="18"/>
<text text-anchor="middle" x="635.026" y="-277.3" font-family="Times,serif" font-size="14.00">ActiveRecord::Base</text>
</g>
<!-- ActiveRecord::Base&#45;&gt;Accident -->
<g id="edge1" class="edge"><title>ActiveRecord::Base&#45;&gt;Accident</title>
<path fill="none" stroke="black" d="M602.461,-264.84C585.693,-257.508 564.689,-249.431 545.026,-245 429.432,-218.952 397.094,-237.022 279.026,-227 196.227,-219.972 174.267,-225.467 93.0262,-208 86.3652,-206.568 79.3561,-204.57 72.739,-202.446"/>
</g>
<!-- ActiveRecord::Base&#45;&gt;Attraction -->
<g id="edge2" class="edge"><title>ActiveRecord::Base&#45;&gt;Attraction</title>
<path fill="none" stroke="black" d="M602.456,-264.861C585.687,-257.536 564.683,-249.457 545.026,-245 433.791,-219.78 401.907,-243.347 289.026,-227 250.286,-221.39 240.868,-218.01 203.026,-208 196.263,-206.211 189.086,-204.129 182.227,-202.049"/>
</g>
<!-- ActiveRecord::Base&#45;&gt;Events -->
<g id="edge3" class="edge"><title>ActiveRecord::Base&#45;&gt;Events</title>
<path fill="none" stroke="black" d="M602.454,-264.873C585.684,-257.55 564.68,-249.47 545.026,-245 435.97,-220.195 398.795,-266.142 294.026,-227 281.926,-222.479 270.287,-213.892 261.5,-206.238"/>
</g>
<!-- ActiveRecord::Base&#45;&gt;Flagging -->
<g id="edge4" class="edge"><title>ActiveRecord::Base&#45;&gt;Flagging</title>
<path fill="none" stroke="black" d="M655.543,-263.971C670.054,-250.687 687.965,-230.568 694.026,-208 701.873,-178.784 703.313,-167.644 691.026,-140 670.084,-92.8826 622.165,-53.6402 593.938,-33.5241"/>
</g>
<!-- ActiveRecord::Base&#45;&gt;Hour -->
<g id="edge5" class="edge"><title>ActiveRecord::Base&#45;&gt;Hour</title>
<path fill="none" stroke="black" d="M687.065,-267.597C717.489,-257.044 753.299,-238.702 771.026,-208 803.536,-151.697 802.678,-70.8197 800.49,-36.0012"/>
</g>
<!-- ActiveRecord::Base&#45;&gt;Route -->
<g id="edge10" class="edge"><title>ActiveRecord::Base&#45;&gt;Route</title>
<path fill="none" stroke="black" d="M611.916,-264.084C587.761,-246.926 550.314,-220.328 527.881,-204.393"/>
</g>
<!-- ActiveRecord::Base&#45;&gt;RoutePoint -->
<g id="edge11" class="edge"><title>ActiveRecord::Base&#45;&gt;RoutePoint</title>
<path fill="none" stroke="black" d="M596.462,-265.57C533.562,-240.509 412.976,-189.265 384.026,-154 376.5,-144.832 371.718,-132.34 368.834,-122.263"/>
</g>
<!-- ActiveRecord::Base&#45;&gt;RouteReview -->
<g id="edge12" class="edge"><title>ActiveRecord::Base&#45;&gt;RouteReview</title>
<path fill="none" stroke="black" d="M599.048,-265.139C582.726,-258.475 563.076,-250.87 545.026,-245 431.42,-208.051 354.755,-231.074 306.026,-122 299.5,-107.392 297.406,-99.4793 306.026,-86 326.943,-53.293 368.348,-36.3214 401.576,-27.6564"/>
</g>
<!-- ActiveRecord::Base&#45;&gt;User -->
<g id="edge19" class="edge"><title>ActiveRecord::Base&#45;&gt;User</title>
<path fill="none" stroke="black" d="M647.791,-263.282C666.684,-235.51 697.37,-179.909 673.026,-140 663.761,-124.811 645.564,-115.933 630.325,-110.922"/>
</g>
<!-- ActiveRecord::Base&#45;&gt;UserResponse -->
<g id="edge20" class="edge"><title>ActiveRecord::Base&#45;&gt;UserResponse</title>
<path fill="none" stroke="black" d="M683.177,-266.925C703.23,-258.716 724.678,-246.043 737.026,-227 778.928,-162.379 784.088,-121.514 747.026,-54 742.233,-45.2691 734.237,-38.405 725.805,-33.1558"/>
</g>
<!-- ActiveRecord::Base&#45;&gt;Weather -->
<g id="edge22" class="edge"><title>ActiveRecord::Base&#45;&gt;Weather</title>
<path fill="none" stroke="black" d="M690.772,-268.393C726.695,-259.476 773.839,-245.656 813.026,-227 825.078,-221.262 837.477,-212.994 847.249,-205.827"/>
</g>
<!-- ActiveRecord::Base&#45;&gt;WeatherPeriod -->
<g id="edge23" class="edge"><title>ActiveRecord::Base&#45;&gt;WeatherPeriod</title>
<path fill="none" stroke="black" d="M704.808,-272.102C778.847,-261.588 888.615,-240.859 914.026,-208 933.178,-183.235 924.744,-144.196 917.489,-121.972"/>
</g>
</g>
</svg>
