<?xml version="1.0" encoding="UTF-8" standalone="no"?>
<!DOCTYPE svg PUBLIC "-//W3C//DTD SVG 1.1//EN"
 "http://www.w3.org/Graphics/SVG/1.1/DTD/svg11.dtd">
<!-- Generated by graphviz version 2.38.0 (20140413.2041)
 -->
<!-- Title: models_diagram Pages: 1 -->
<svg width="1369pt" height="997pt"
 viewBox="0.00 0.00 1368.96 997.00" xmlns="http://www.w3.org/2000/svg" xmlns:xlink="http://www.w3.org/1999/xlink">
<g id="graph0" class="graph" transform="scale(1 1) rotate(0) translate(4 993)">
<title>models_diagram</title>
<polygon fill="white" stroke="none" points="-4,4 -4,-993 1364.96,-993 1364.96,4 -4,4"/>
<!-- _diagram_info -->
<g id="node1" class="node"><title>_diagram_info</title>
<text text-anchor="start" x="645.776" y="-974.6" font-family="Times,serif" font-size="13.00">Models diagram</text>
<text text-anchor="start" x="645.776" y="-961.6" font-family="Times,serif" font-size="13.00">Date: Apr 16 2015 &#45; 14:41</text>
<text text-anchor="start" x="645.776" y="-948.6" font-family="Times,serif" font-size="13.00">Migration version: 20150108135117</text>
<text text-anchor="start" x="645.776" y="-935.6" font-family="Times,serif" font-size="13.00">Generated by RailRoady 1.1.1</text>
<text text-anchor="start" x="645.776" y="-922.6" font-family="Times,serif" font-size="13.00">http://railroady.prestonlee.com</text>
</g>
<!-- Accident -->
<g id="node2" class="node"><title>Accident</title>
<path fill="none" stroke="black" d="M12,-673.5C12,-673.5 140.452,-673.5 140.452,-673.5 146.452,-673.5 152.452,-679.5 152.452,-685.5 152.452,-685.5 152.452,-831.5 152.452,-831.5 152.452,-837.5 146.452,-843.5 140.452,-843.5 140.452,-843.5 12,-843.5 12,-843.5 6,-843.5 0,-837.5 0,-831.5 0,-831.5 0,-685.5 0,-685.5 0,-679.5 6,-673.5 12,-673.5"/>
<text text-anchor="middle" x="76.2261" y="-828.3" font-family="Times,serif" font-size="14.00">Accident</text>
<polyline fill="none" stroke="black" points="0,-821.5 152.452,-821.5 "/>
<text text-anchor="start" x="8" y="-806.3" font-family="Times,serif" font-size="14.00">id :integer</text>
<text text-anchor="start" x="8" y="-792.3" font-family="Times,serif" font-size="14.00">date :date</text>
<text text-anchor="start" x="8" y="-778.3" font-family="Times,serif" font-size="14.00">time :datetime</text>
<text text-anchor="start" x="8" y="-764.3" font-family="Times,serif" font-size="14.00">severity :integer</text>
<text text-anchor="start" x="8" y="-750.3" font-family="Times,serif" font-size="14.00">police_response :integer</text>
<text text-anchor="start" x="8" y="-736.3" font-family="Times,serif" font-size="14.00">casualities :integer</text>
<text text-anchor="start" x="8" y="-722.3" font-family="Times,serif" font-size="14.00">created_at :datetime</text>
<text text-anchor="start" x="8" y="-708.3" font-family="Times,serif" font-size="14.00">updated_at :datetime</text>
<text text-anchor="start" x="8" y="-694.3" font-family="Times,serif" font-size="14.00">lat :float</text>
<text text-anchor="start" x="8" y="-680.3" font-family="Times,serif" font-size="14.00">long :float</text>
</g>
<!-- Attraction -->
<g id="node3" class="node"><title>Attraction</title>
<path fill="none" stroke="black" d="M182.721,-652.5C182.721,-652.5 291.731,-652.5 291.731,-652.5 297.731,-652.5 303.731,-658.5 303.731,-664.5 303.731,-664.5 303.731,-852.5 303.731,-852.5 303.731,-858.5 297.731,-864.5 291.731,-864.5 291.731,-864.5 182.721,-864.5 182.721,-864.5 176.721,-864.5 170.721,-858.5 170.721,-852.5 170.721,-852.5 170.721,-664.5 170.721,-664.5 170.721,-658.5 176.721,-652.5 182.721,-652.5"/>
<text text-anchor="middle" x="237.226" y="-849.3" font-family="Times,serif" font-size="14.00">Attraction</text>
<polyline fill="none" stroke="black" points="170.721,-842.5 303.731,-842.5 "/>
<text text-anchor="start" x="178.721" y="-827.3" font-family="Times,serif" font-size="14.00">id :integer</text>
<text text-anchor="start" x="178.721" y="-813.3" font-family="Times,serif" font-size="14.00">type :integer</text>
<text text-anchor="start" x="178.721" y="-799.3" font-family="Times,serif" font-size="14.00">lat :float</text>
<text text-anchor="start" x="178.721" y="-785.3" font-family="Times,serif" font-size="14.00">long :float</text>
<text text-anchor="start" x="178.721" y="-771.3" font-family="Times,serif" font-size="14.00">name :string</text>
<text text-anchor="start" x="178.721" y="-757.3" font-family="Times,serif" font-size="14.00">description :text</text>
<text text-anchor="start" x="178.721" y="-743.3" font-family="Times,serif" font-size="14.00">contact_tel :string</text>
<text text-anchor="start" x="178.721" y="-729.3" font-family="Times,serif" font-size="14.00">address1 :string</text>
<text text-anchor="start" x="178.721" y="-715.3" font-family="Times,serif" font-size="14.00">address2 :string</text>
<text text-anchor="start" x="178.721" y="-701.3" font-family="Times,serif" font-size="14.00">town :string</text>
<text text-anchor="start" x="178.721" y="-687.3" font-family="Times,serif" font-size="14.00">postcode :string</text>
<text text-anchor="start" x="178.721" y="-673.3" font-family="Times,serif" font-size="14.00">created_at :datetime</text>
<text text-anchor="start" x="178.721" y="-659.3" font-family="Times,serif" font-size="14.00">updated_at :datetime</text>
</g>
<!-- Events -->
<g id="node4" class="node"><title>Events</title>
<path fill="none" stroke="black" d="M334.11,-673.5C334.11,-673.5 470.342,-673.5 470.342,-673.5 476.342,-673.5 482.342,-679.5 482.342,-685.5 482.342,-685.5 482.342,-831.5 482.342,-831.5 482.342,-837.5 476.342,-843.5 470.342,-843.5 470.342,-843.5 334.11,-843.5 334.11,-843.5 328.11,-843.5 322.11,-837.5 322.11,-831.5 322.11,-831.5 322.11,-685.5 322.11,-685.5 322.11,-679.5 328.11,-673.5 334.11,-673.5"/>
<text text-anchor="middle" x="402.226" y="-828.3" font-family="Times,serif" font-size="14.00">Events</text>
<polyline fill="none" stroke="black" points="322.11,-821.5 482.342,-821.5 "/>
<text text-anchor="start" x="330.11" y="-806.3" font-family="Times,serif" font-size="14.00">id :integer</text>
<text text-anchor="start" x="330.11" y="-792.3" font-family="Times,serif" font-size="14.00">type :integer</text>
<text text-anchor="start" x="330.11" y="-778.3" font-family="Times,serif" font-size="14.00">attraction_id :integer</text>
<text text-anchor="start" x="330.11" y="-764.3" font-family="Times,serif" font-size="14.00">name :string</text>
<text text-anchor="start" x="330.11" y="-750.3" font-family="Times,serif" font-size="14.00">description :text</text>
<text text-anchor="start" x="330.11" y="-736.3" font-family="Times,serif" font-size="14.00">start_time :datetime</text>
<text text-anchor="start" x="330.11" y="-722.3" font-family="Times,serif" font-size="14.00">end_time :datetime</text>
<text text-anchor="start" x="330.11" y="-708.3" font-family="Times,serif" font-size="14.00">road_closure_details :text</text>
<text text-anchor="start" x="330.11" y="-694.3" font-family="Times,serif" font-size="14.00">created_at :datetime</text>
<text text-anchor="start" x="330.11" y="-680.3" font-family="Times,serif" font-size="14.00">updated_at :datetime</text>
</g>
<!-- Flagging -->
<g id="node5" class="node"><title>Flagging</title>
<path fill="none" stroke="black" d="M762.721,-63.5C762.721,-63.5 871.731,-63.5 871.731,-63.5 877.731,-63.5 883.731,-69.5 883.731,-75.5 883.731,-75.5 883.731,-151.5 883.731,-151.5 883.731,-157.5 877.731,-163.5 871.731,-163.5 871.731,-163.5 762.721,-163.5 762.721,-163.5 756.721,-163.5 750.721,-157.5 750.721,-151.5 750.721,-151.5 750.721,-75.5 750.721,-75.5 750.721,-69.5 756.721,-63.5 762.721,-63.5"/>
<text text-anchor="middle" x="817.226" y="-148.3" font-family="Times,serif" font-size="14.00">Flagging</text>
<polyline fill="none" stroke="black" points="750.721,-141.5 883.731,-141.5 "/>
<text text-anchor="start" x="758.721" y="-126.3" font-family="Times,serif" font-size="14.00">id :integer</text>
<text text-anchor="start" x="758.721" y="-112.3" font-family="Times,serif" font-size="14.00">user_id :integer</text>
<text text-anchor="start" x="758.721" y="-98.3" font-family="Times,serif" font-size="14.00">route_id :integer</text>
<text text-anchor="start" x="758.721" y="-84.3" font-family="Times,serif" font-size="14.00">created_at :datetime</text>
<text text-anchor="start" x="758.721" y="-70.3" font-family="Times,serif" font-size="14.00">updated_at :datetime</text>
</g>
<!-- Hour -->
<g id="node6" class="node"><title>Hour</title>
<path fill="none" stroke="black" d="M1087.33,-0.5C1087.33,-0.5 1225.12,-0.5 1225.12,-0.5 1231.12,-0.5 1237.12,-6.5 1237.12,-12.5 1237.12,-12.5 1237.12,-214.5 1237.12,-214.5 1237.12,-220.5 1231.12,-226.5 1225.12,-226.5 1225.12,-226.5 1087.33,-226.5 1087.33,-226.5 1081.33,-226.5 1075.33,-220.5 1075.33,-214.5 1075.33,-214.5 1075.33,-12.5 1075.33,-12.5 1075.33,-6.5 1081.33,-0.5 1087.33,-0.5"/>
<text text-anchor="middle" x="1156.23" y="-211.3" font-family="Times,serif" font-size="14.00">Hour</text>
<polyline fill="none" stroke="black" points="1075.33,-204.5 1237.12,-204.5 "/>
<text text-anchor="start" x="1083.33" y="-189.3" font-family="Times,serif" font-size="14.00">id :integer</text>
<text text-anchor="start" x="1083.33" y="-175.3" font-family="Times,serif" font-size="14.00">user_id :integer</text>
<text text-anchor="start" x="1083.33" y="-161.3" font-family="Times,serif" font-size="14.00">time :datetime</text>
<text text-anchor="start" x="1083.33" y="-147.3" font-family="Times,serif" font-size="14.00">distance :float</text>
<text text-anchor="start" x="1083.33" y="-133.3" font-family="Times,serif" font-size="14.00">average_speed :float</text>
<text text-anchor="start" x="1083.33" y="-119.3" font-family="Times,serif" font-size="14.00">created_at :datetime</text>
<text text-anchor="start" x="1083.33" y="-105.3" font-family="Times,serif" font-size="14.00">updated_at :datetime</text>
<text text-anchor="start" x="1083.33" y="-91.3" font-family="Times,serif" font-size="14.00">max_speed :float</text>
<text text-anchor="start" x="1083.33" y="-77.3" font-family="Times,serif" font-size="14.00">min_speed :float</text>
<text text-anchor="start" x="1083.33" y="-63.3" font-family="Times,serif" font-size="14.00">num_points :integer</text>
<text text-anchor="start" x="1083.33" y="-49.3" font-family="Times,serif" font-size="14.00">routes_started :integer</text>
<text text-anchor="start" x="1083.33" y="-35.3" font-family="Times,serif" font-size="14.00">routes_completed :integer</text>
<text text-anchor="start" x="1083.33" y="-21.3" font-family="Times,serif" font-size="14.00">is_city :boolean</text>
<text text-anchor="start" x="1083.33" y="-7.3" font-family="Times,serif" font-size="14.00">duration :integer</text>
</g>
<!-- Route -->
<g id="node7" class="node"><title>Route</title>
<path fill="none" stroke="black" d="M743.217,-638.5C743.217,-638.5 873.235,-638.5 873.235,-638.5 879.235,-638.5 885.235,-644.5 885.235,-650.5 885.235,-650.5 885.235,-866.5 885.235,-866.5 885.235,-872.5 879.235,-878.5 873.235,-878.5 873.235,-878.5 743.217,-878.5 743.217,-878.5 737.217,-878.5 731.217,-872.5 731.217,-866.5 731.217,-866.5 731.217,-650.5 731.217,-650.5 731.217,-644.5 737.217,-638.5 743.217,-638.5"/>
<text text-anchor="middle" x="808.226" y="-863.3" font-family="Times,serif" font-size="14.00">Route</text>
<polyline fill="none" stroke="black" points="731.217,-856.5 885.235,-856.5 "/>
<text text-anchor="start" x="739.217" y="-841.3" font-family="Times,serif" font-size="14.00">id :integer</text>
<text text-anchor="start" x="739.217" y="-827.3" font-family="Times,serif" font-size="14.00">name :string</text>
<text text-anchor="start" x="739.217" y="-813.3" font-family="Times,serif" font-size="14.00">lat :float</text>
<text text-anchor="start" x="739.217" y="-799.3" font-family="Times,serif" font-size="14.00">long :float</text>
<text text-anchor="start" x="739.217" y="-785.3" font-family="Times,serif" font-size="14.00">total_distance :float</text>
<text text-anchor="start" x="739.217" y="-771.3" font-family="Times,serif" font-size="14.00">mode :integer</text>
<text text-anchor="start" x="739.217" y="-757.3" font-family="Times,serif" font-size="14.00">created_at :datetime</text>
<text text-anchor="start" x="739.217" y="-743.3" font-family="Times,serif" font-size="14.00">updated_at :datetime</text>
<text text-anchor="start" x="739.217" y="-729.3" font-family="Times,serif" font-size="14.00">start_time :datetime</text>
<text text-anchor="start" x="739.217" y="-715.3" font-family="Times,serif" font-size="14.00">end_time :datetime</text>
<text text-anchor="start" x="739.217" y="-701.3" font-family="Times,serif" font-size="14.00">total_time :integer</text>
<text text-anchor="start" x="739.217" y="-687.3" font-family="Times,serif" font-size="14.00">user_id :integer</text>
<text text-anchor="start" x="739.217" y="-673.3" font-family="Times,serif" font-size="14.00">start_maidenhead :string</text>
<text text-anchor="start" x="739.217" y="-659.3" font-family="Times,serif" font-size="14.00">end_maidenhead :string</text>
<text text-anchor="start" x="739.217" y="-645.3" font-family="Times,serif" font-size="14.00">source :string</text>
</g>
<!-- Route&#45;&gt;Flagging -->
<g id="edge8" class="edge"><title>Route&#45;&gt;Flagging</title>
<path fill="none" stroke="#73d923" d="M793.469,-630.312C783.823,-526.398 775.347,-375.84 789.226,-245 791.727,-221.421 796.703,-195.841 801.774,-173.628"/>
<ellipse fill="none" stroke="#73d923" cx="793.85" cy="-634.355" rx="4" ry="4"/>
<polygon fill="#73d923" stroke="#73d923" points="801.824,-173.414 808.485,-164.703 802.964,-168.546 804.103,-163.677 804.103,-163.677 804.103,-163.677 802.964,-168.546 799.721,-162.652 801.824,-173.414 801.824,-173.414"/>
</g>
<!-- RoutePoint -->
<g id="node8" class="node"><title>RoutePoint</title>
<path fill="none" stroke="black" d="M523.341,-305.5C523.341,-305.5 661.111,-305.5 661.111,-305.5 667.111,-305.5 673.111,-311.5 673.111,-317.5 673.111,-317.5 673.111,-547.5 673.111,-547.5 673.111,-553.5 667.111,-559.5 661.111,-559.5 661.111,-559.5 523.341,-559.5 523.341,-559.5 517.341,-559.5 511.341,-553.5 511.341,-547.5 511.341,-547.5 511.341,-317.5 511.341,-317.5 511.341,-311.5 517.341,-305.5 523.341,-305.5"/>
<text text-anchor="middle" x="592.226" y="-544.3" font-family="Times,serif" font-size="14.00">RoutePoint</text>
<polyline fill="none" stroke="black" points="511.341,-537.5 673.111,-537.5 "/>
<text text-anchor="start" x="519.341" y="-522.3" font-family="Times,serif" font-size="14.00">id :integer</text>
<text text-anchor="start" x="519.341" y="-508.3" font-family="Times,serif" font-size="14.00">route_id :integer</text>
<text text-anchor="start" x="519.341" y="-494.3" font-family="Times,serif" font-size="14.00">lat :float</text>
<text text-anchor="start" x="519.341" y="-480.3" font-family="Times,serif" font-size="14.00">long :float</text>
<text text-anchor="start" x="519.341" y="-466.3" font-family="Times,serif" font-size="14.00">altitude :float</text>
<text text-anchor="start" x="519.341" y="-452.3" font-family="Times,serif" font-size="14.00">on_road :boolean</text>
<text text-anchor="start" x="519.341" y="-438.3" font-family="Times,serif" font-size="14.00">street_name :string</text>
<text text-anchor="start" x="519.341" y="-424.3" font-family="Times,serif" font-size="14.00">created_at :datetime</text>
<text text-anchor="start" x="519.341" y="-410.3" font-family="Times,serif" font-size="14.00">updated_at :datetime</text>
<text text-anchor="start" x="519.341" y="-396.3" font-family="Times,serif" font-size="14.00">time :datetime</text>
<text text-anchor="start" x="519.341" y="-382.3" font-family="Times,serif" font-size="14.00">is_important :boolean</text>
<text text-anchor="start" x="519.341" y="-368.3" font-family="Times,serif" font-size="14.00">kph :float</text>
<text text-anchor="start" x="519.341" y="-354.3" font-family="Times,serif" font-size="14.00">vertical_accuracy :float</text>
<text text-anchor="start" x="519.341" y="-340.3" font-family="Times,serif" font-size="14.00">horizontal_accuracy :float</text>
<text text-anchor="start" x="519.341" y="-326.3" font-family="Times,serif" font-size="14.00">course :float</text>
<text text-anchor="start" x="519.341" y="-312.3" font-family="Times,serif" font-size="14.00">maidenhead :string</text>
</g>
<!-- Route&#45;&gt;RoutePoint -->
<g id="edge7" class="edge"><title>Route&#45;&gt;RoutePoint</title>
<path fill="none" stroke="#3c3ed5" d="M724.736,-692.078C701.765,-670.974 678.409,-646.206 660.999,-620 650.591,-604.334 641.497,-586.886 633.631,-569.125"/>
<ellipse fill="none" stroke="#3c3ed5" cx="727.917" cy="-694.96" rx="4.00002" ry="4.00002"/>
<polygon fill="#3c3ed5" stroke="#3c3ed5" points="633.578,-569.003 633.762,-558.038 631.603,-564.409 629.628,-559.816 629.628,-559.816 629.628,-559.816 631.603,-564.409 625.494,-561.593 633.578,-569.003 633.578,-569.003"/>
<text text-anchor="middle" x="678.34" y="-608.8" font-family="Times,serif" font-size="14.00">points</text>
</g>
<!-- RouteReview -->
<g id="node9" class="node"><title>RouteReview</title>
<path fill="none" stroke="black" d="M611.721,-56.5C611.721,-56.5 720.731,-56.5 720.731,-56.5 726.731,-56.5 732.731,-62.5 732.731,-68.5 732.731,-68.5 732.731,-158.5 732.731,-158.5 732.731,-164.5 726.731,-170.5 720.731,-170.5 720.731,-170.5 611.721,-170.5 611.721,-170.5 605.721,-170.5 599.721,-164.5 599.721,-158.5 599.721,-158.5 599.721,-68.5 599.721,-68.5 599.721,-62.5 605.721,-56.5 611.721,-56.5"/>
<text text-anchor="middle" x="666.226" y="-155.3" font-family="Times,serif" font-size="14.00">RouteReview</text>
<polyline fill="none" stroke="black" points="599.721,-148.5 732.731,-148.5 "/>
<text text-anchor="start" x="607.721" y="-133.3" font-family="Times,serif" font-size="14.00">id :integer</text>
<text text-anchor="start" x="607.721" y="-119.3" font-family="Times,serif" font-size="14.00">route_id :integer</text>
<text text-anchor="start" x="607.721" y="-105.3" font-family="Times,serif" font-size="14.00">user_id :integer</text>
<text text-anchor="start" x="607.721" y="-91.3" font-family="Times,serif" font-size="14.00">created_at :datetime</text>
<text text-anchor="start" x="607.721" y="-77.3" font-family="Times,serif" font-size="14.00">updated_at :datetime</text>
<text text-anchor="start" x="607.721" y="-63.3" font-family="Times,serif" font-size="14.00">rating :integer</text>
</g>
<!-- Route&#45;&gt;RouteReview -->
<g id="edge6" class="edge"><title>Route&#45;&gt;RouteReview</title>
<path fill="none" stroke="#f61a9d" d="M753.607,-630.438C748.593,-616.273 743.968,-601.932 740.136,-588 700.727,-444.717 680.331,-270.881 671.601,-178.872"/>
<ellipse fill="none" stroke="#f61a9d" cx="755.076" cy="-634.521" rx="4.00001" ry="4.00001"/>
<ellipse fill="#f61a9d" stroke="#f61a9d" cx="671.215" cy="-174.75" rx="4" ry="4"/>
<text text-anchor="middle" x="759.271" y="-428.3" font-family="Times,serif" font-size="14.00">review</text>
</g>
<!-- User -->
<g id="node10" class="node"><title>User</title>
<path fill="none" stroke="black" d="M814.948,-277.5C814.948,-277.5 995.504,-277.5 995.504,-277.5 1001.5,-277.5 1007.5,-283.5 1007.5,-289.5 1007.5,-289.5 1007.5,-575.5 1007.5,-575.5 1007.5,-581.5 1001.5,-587.5 995.504,-587.5 995.504,-587.5 814.948,-587.5 814.948,-587.5 808.948,-587.5 802.948,-581.5 802.948,-575.5 802.948,-575.5 802.948,-289.5 802.948,-289.5 802.948,-283.5 808.948,-277.5 814.948,-277.5"/>
<text text-anchor="middle" x="905.226" y="-572.3" font-family="Times,serif" font-size="14.00">User</text>
<polyline fill="none" stroke="black" points="802.948,-565.5 1007.5,-565.5 "/>
<text text-anchor="start" x="810.948" y="-550.3" font-family="Times,serif" font-size="14.00">id :integer</text>
<text text-anchor="start" x="810.948" y="-536.3" font-family="Times,serif" font-size="14.00">email :string</text>
<text text-anchor="start" x="810.948" y="-522.3" font-family="Times,serif" font-size="14.00">encrypted_password :string</text>
<text text-anchor="start" x="810.948" y="-508.3" font-family="Times,serif" font-size="14.00">reset_password_token :string</text>
<text text-anchor="start" x="810.948" y="-494.3" font-family="Times,serif" font-size="14.00">reset_password_sent_at :datetime</text>
<text text-anchor="start" x="810.948" y="-480.3" font-family="Times,serif" font-size="14.00">remember_created_at :datetime</text>
<text text-anchor="start" x="810.948" y="-466.3" font-family="Times,serif" font-size="14.00">sign_in_count :integer</text>
<text text-anchor="start" x="810.948" y="-452.3" font-family="Times,serif" font-size="14.00">current_sign_in_at :datetime</text>
<text text-anchor="start" x="810.948" y="-438.3" font-family="Times,serif" font-size="14.00">last_sign_in_at :datetime</text>
<text text-anchor="start" x="810.948" y="-424.3" font-family="Times,serif" font-size="14.00">current_sign_in_ip :string</text>
<text text-anchor="start" x="810.948" y="-410.3" font-family="Times,serif" font-size="14.00">last_sign_in_ip :string</text>
<text text-anchor="start" x="810.948" y="-396.3" font-family="Times,serif" font-size="14.00">created_at :datetime</text>
<text text-anchor="start" x="810.948" y="-382.3" font-family="Times,serif" font-size="14.00">updated_at :datetime</text>
<text text-anchor="start" x="810.948" y="-368.3" font-family="Times,serif" font-size="14.00">gender :integer</text>
<text text-anchor="start" x="810.948" y="-354.3" font-family="Times,serif" font-size="14.00">profile_pic_file_name :string</text>
<text text-anchor="start" x="810.948" y="-340.3" font-family="Times,serif" font-size="14.00">profile_pic_content_type :string</text>
<text text-anchor="start" x="810.948" y="-326.3" font-family="Times,serif" font-size="14.00">profile_pic_file_size :integer</text>
<text text-anchor="start" x="810.948" y="-312.3" font-family="Times,serif" font-size="14.00">profile_pic_updated_at :datetime</text>
<text text-anchor="start" x="810.948" y="-298.3" font-family="Times,serif" font-size="14.00">year_of_birth :integer</text>
<text text-anchor="start" x="810.948" y="-284.3" font-family="Times,serif" font-size="14.00">username :string</text>
</g>
<!-- Route&#45;&gt;User -->
<g id="edge9" class="edge"><title>Route&#45;&gt;User</title>
<path fill="none" stroke="#2cfbb4" d="M804.366,-628.399C805.508,-620.768 806.997,-613.252 808.902,-606 809.658,-603.123 810.473,-600.243 811.342,-597.364"/>
<polygon fill="#2cfbb4" stroke="#2cfbb4" points="804.344,-628.567 798.596,-637.905 803.701,-633.525 803.058,-638.484 803.058,-638.484 803.058,-638.484 803.701,-633.525 807.521,-639.062 804.344,-628.567 804.344,-628.567"/>
<polygon fill="#2cfbb4" stroke="#2cfbb4" points="811.428,-597.097 818.783,-588.963 812.964,-592.338 814.501,-587.58 814.501,-587.58 814.501,-587.58 812.964,-592.338 810.219,-586.198 811.428,-597.097 811.428,-597.097"/>
<text text-anchor="middle" x="831.388" y="-608.8" font-family="Times,serif" font-size="14.00">flaggers</text>
</g>
<!-- User&#45;&gt;Flagging -->
<g id="edge16" class="edge"><title>User&#45;&gt;Flagging</title>
<path fill="none" stroke="#443dc0" d="M880.755,-269.213C878.733,-260.981 876.56,-252.87 874.226,-245 867.031,-220.734 856.475,-195.006 846.397,-172.867"/>
<ellipse fill="none" stroke="#443dc0" cx="881.719" cy="-273.247" rx="4.00001" ry="4.00001"/>
<polygon fill="#443dc0" stroke="#443dc0" points="846.315,-172.689 846.202,-161.724 844.216,-168.151 842.118,-163.612 842.118,-163.612 842.118,-163.612 844.216,-168.151 838.033,-165.501 846.315,-172.689 846.315,-172.689"/>
</g>
<!-- User&#45;&gt;Hour -->
<g id="edge18" class="edge"><title>User&#45;&gt;Hour</title>
<path fill="none" stroke="#ebfc24" d="M1012.71,-295.759C1031.45,-272.083 1050.75,-247.714 1068.87,-224.827"/>
<ellipse fill="none" stroke="#ebfc24" cx="1010.16" cy="-298.971" rx="4.00002" ry="4.00002"/>
<polygon fill="#ebfc24" stroke="#ebfc24" points="1069.02,-224.637 1078.76,-219.59 1072.12,-220.717 1075.23,-216.797 1075.23,-216.797 1075.23,-216.797 1072.12,-220.717 1071.7,-214.003 1069.02,-224.637 1069.02,-224.637"/>
<text text-anchor="middle" x="1058.67" y="-247.8" font-family="Times,serif" font-size="14.00">stats</text>
</g>
<!-- User&#45;&gt;Route -->
<g id="edge14" class="edge"><title>User&#45;&gt;Route</title>
<path fill="none" stroke="#051f37" d="M860.589,-595.292C858.133,-603.658 855.669,-611.934 853.226,-620 852.373,-622.817 851.503,-625.664 850.621,-628.533"/>
<ellipse fill="none" stroke="#051f37" cx="861.719" cy="-591.426" rx="4.00001" ry="4.00001"/>
<polygon fill="#051f37" stroke="#051f37" points="850.537,-628.806 843.278,-637.025 849.056,-633.582 847.576,-638.358 847.576,-638.358 847.576,-638.358 849.056,-633.582 851.874,-639.69 850.537,-628.806 850.537,-628.806"/>
</g>
<!-- User&#45;&gt;Route -->
<g id="edge17" class="edge"><title>User&#45;&gt;Route</title>
<path fill="none" stroke="#231da3" d="M875.744,-597.57C873.689,-605.19 871.517,-612.7 869.226,-620 868.346,-622.803 867.426,-625.625 866.471,-628.46"/>
<polygon fill="#231da3" stroke="#231da3" points="875.752,-597.54 882.638,-589.006 877.018,-592.703 878.285,-587.866 878.285,-587.866 878.285,-587.866 877.018,-592.703 873.931,-586.727 875.752,-597.54 875.752,-597.54"/>
<polygon fill="#231da3" stroke="#231da3" points="866.39,-628.692 858.845,-636.65 864.742,-633.412 863.094,-638.133 863.094,-638.133 863.094,-638.133 864.742,-633.412 867.342,-639.616 866.39,-628.692 866.39,-628.692"/>
<text text-anchor="middle" x="913.44" y="-608.8" font-family="Times,serif" font-size="14.00">flagged_routes</text>
</g>
<!-- User&#45;&gt;RouteReview -->
<g id="edge13" class="edge"><title>User&#45;&gt;RouteReview</title>
<path fill="none" stroke="#d00c99" d="M797.711,-300.922C778.52,-276.639 758.995,-251.27 741.226,-227 730.111,-211.818 718.604,-195.114 708.039,-179.33"/>
<ellipse fill="none" stroke="#d00c99" cx="800.362" cy="-304.269" rx="4.00002" ry="4.00002"/>
<polygon fill="#d00c99" stroke="#d00c99" points="707.817,-178.995 706.022,-168.177 705.046,-174.833 702.276,-170.671 702.276,-170.671 702.276,-170.671 705.046,-174.833 698.53,-173.164 707.817,-178.995 707.817,-178.995"/>
<text text-anchor="middle" x="784.995" y="-247.8" font-family="Times,serif" font-size="14.00">reviews</text>
</g>
<!-- UserResponse -->
<g id="node11" class="node"><title>UserResponse</title>
<path fill="none" stroke="black" d="M913.452,-49.5C913.452,-49.5 1045,-49.5 1045,-49.5 1051,-49.5 1057,-55.5 1057,-61.5 1057,-61.5 1057,-165.5 1057,-165.5 1057,-171.5 1051,-177.5 1045,-177.5 1045,-177.5 913.452,-177.5 913.452,-177.5 907.452,-177.5 901.452,-171.5 901.452,-165.5 901.452,-165.5 901.452,-61.5 901.452,-61.5 901.452,-55.5 907.452,-49.5 913.452,-49.5"/>
<text text-anchor="middle" x="979.226" y="-162.3" font-family="Times,serif" font-size="14.00">UserResponse</text>
<polyline fill="none" stroke="black" points="901.452,-155.5 1057,-155.5 "/>
<text text-anchor="start" x="909.452" y="-140.3" font-family="Times,serif" font-size="14.00">id :integer</text>
<text text-anchor="start" x="909.452" y="-126.3" font-family="Times,serif" font-size="14.00">user_id :integer</text>
<text text-anchor="start" x="909.452" y="-112.3" font-family="Times,serif" font-size="14.00">usage_per_week :integer</text>
<text text-anchor="start" x="909.452" y="-98.3" font-family="Times,serif" font-size="14.00">usage_type :integer</text>
<text text-anchor="start" x="909.452" y="-84.3" font-family="Times,serif" font-size="14.00">usage_reason :integer</text>
<text text-anchor="start" x="909.452" y="-70.3" font-family="Times,serif" font-size="14.00">created_at :datetime</text>
<text text-anchor="start" x="909.452" y="-56.3" font-family="Times,serif" font-size="14.00">updated_at :datetime</text>
</g>
<!-- User&#45;&gt;UserResponse -->
<g id="edge15" class="edge"><title>User&#45;&gt;UserResponse</title>
<path fill="none" stroke="#f2bd53" d="M943.084,-269.324C949.784,-240.623 956.446,-212.083 962.192,-187.471"/>
<ellipse fill="none" stroke="#f2bd53" cx="942.16" cy="-273.283" rx="4.00001" ry="4.00001"/>
<polygon fill="#f2bd53" stroke="#f2bd53" points="962.239,-187.27 968.894,-178.555 963.375,-182.401 964.512,-177.532 964.512,-177.532 964.512,-177.532 963.375,-182.401 960.13,-176.509 962.239,-187.27 962.239,-187.27"/>
</g>
<!-- Weather -->
<g id="node12" class="node"><title>Weather</title>
<path fill="none" stroke="black" d="M1151.72,-701.5C1151.72,-701.5 1260.73,-701.5 1260.73,-701.5 1266.73,-701.5 1272.73,-707.5 1272.73,-713.5 1272.73,-713.5 1272.73,-803.5 1272.73,-803.5 1272.73,-809.5 1266.73,-815.5 1260.73,-815.5 1260.73,-815.5 1151.72,-815.5 1151.72,-815.5 1145.72,-815.5 1139.72,-809.5 1139.72,-803.5 1139.72,-803.5 1139.72,-713.5 1139.72,-713.5 1139.72,-707.5 1145.72,-701.5 1151.72,-701.5"/>
<text text-anchor="middle" x="1206.23" y="-800.3" font-family="Times,serif" font-size="14.00">Weather</text>
<polyline fill="none" stroke="black" points="1139.72,-793.5 1272.73,-793.5 "/>
<text text-anchor="start" x="1147.72" y="-778.3" font-family="Times,serif" font-size="14.00">id :integer</text>
<text text-anchor="start" x="1147.72" y="-764.3" font-family="Times,serif" font-size="14.00">date :datetime</text>
<text text-anchor="start" x="1147.72" y="-750.3" font-family="Times,serif" font-size="14.00">sunset :datetime</text>
<text text-anchor="start" x="1147.72" y="-736.3" font-family="Times,serif" font-size="14.00">sunrise :datetime</text>
<text text-anchor="start" x="1147.72" y="-722.3" font-family="Times,serif" font-size="14.00">created_at :datetime</text>
<text text-anchor="start" x="1147.72" y="-708.3" font-family="Times,serif" font-size="14.00">updated_at :datetime</text>
</g>
<!-- WeatherPeriod -->
<g id="node13" class="node"><title>WeatherPeriod</title>
<path fill="none" stroke="black" d="M1185.49,-284.5C1185.49,-284.5 1348.96,-284.5 1348.96,-284.5 1354.96,-284.5 1360.96,-290.5 1360.96,-296.5 1360.96,-296.5 1360.96,-568.5 1360.96,-568.5 1360.96,-574.5 1354.96,-580.5 1348.96,-580.5 1348.96,-580.5 1185.49,-580.5 1185.49,-580.5 1179.49,-580.5 1173.49,-574.5 1173.49,-568.5 1173.49,-568.5 1173.49,-296.5 1173.49,-296.5 1173.49,-290.5 1179.49,-284.5 1185.49,-284.5"/>
<text text-anchor="middle" x="1267.23" y="-565.3" font-family="Times,serif" font-size="14.00">WeatherPeriod</text>
<polyline fill="none" stroke="black" points="1173.49,-558.5 1360.96,-558.5 "/>
<text text-anchor="start" x="1181.49" y="-543.3" font-family="Times,serif" font-size="14.00">id :integer</text>
<text text-anchor="start" x="1181.49" y="-529.3" font-family="Times,serif" font-size="14.00">weather_id :integer</text>
<text text-anchor="start" x="1181.49" y="-515.3" font-family="Times,serif" font-size="14.00">start_time :datetime</text>
<text text-anchor="start" x="1181.49" y="-501.3" font-family="Times,serif" font-size="14.00">precipitation_type :string</text>
<text text-anchor="start" x="1181.49" y="-487.3" font-family="Times,serif" font-size="14.00">wind_speed :float</text>
<text text-anchor="start" x="1181.49" y="-473.3" font-family="Times,serif" font-size="14.00">created_at :datetime</text>
<text text-anchor="start" x="1181.49" y="-459.3" font-family="Times,serif" font-size="14.00">updated_at :datetime</text>
<text text-anchor="start" x="1181.49" y="-445.3" font-family="Times,serif" font-size="14.00">summary :string</text>
<text text-anchor="start" x="1181.49" y="-431.3" font-family="Times,serif" font-size="14.00">icon :string</text>
<text text-anchor="start" x="1181.49" y="-417.3" font-family="Times,serif" font-size="14.00">precipitation_intensity :float</text>
<text text-anchor="start" x="1181.49" y="-403.3" font-family="Times,serif" font-size="14.00">precipitation_probability :float</text>
<text text-anchor="start" x="1181.49" y="-389.3" font-family="Times,serif" font-size="14.00">temperature :float</text>
<text text-anchor="start" x="1181.49" y="-375.3" font-family="Times,serif" font-size="14.00">dew_point :float</text>
<text text-anchor="start" x="1181.49" y="-361.3" font-family="Times,serif" font-size="14.00">humidity :float</text>
<text text-anchor="start" x="1181.49" y="-347.3" font-family="Times,serif" font-size="14.00">wind_bearing :float</text>
<text text-anchor="start" x="1181.49" y="-333.3" font-family="Times,serif" font-size="14.00">visibility :float</text>
<text text-anchor="start" x="1181.49" y="-319.3" font-family="Times,serif" font-size="14.00">cloud_cover :float</text>
<text text-anchor="start" x="1181.49" y="-305.3" font-family="Times,serif" font-size="14.00">pressure :float</text>
<text text-anchor="start" x="1181.49" y="-291.3" font-family="Times,serif" font-size="14.00">ozone :float</text>
</g>
<!-- Weather&#45;&gt;WeatherPeriod -->
<g id="edge21" class="edge"><title>Weather&#45;&gt;WeatherPeriod</title>
<path fill="none" stroke="#85a3d7" d="M1218.3,-693.389C1223.87,-663.799 1230.75,-627.238 1237.58,-590.98"/>
<ellipse fill="none" stroke="#85a3d7" cx="1217.52" cy="-697.502" rx="4.00001" ry="4.00001"/>
<polygon fill="#85a3d7" stroke="#85a3d7" points="1237.65,-590.595 1243.92,-581.6 1238.57,-585.681 1239.5,-580.767 1239.5,-580.767 1239.5,-580.767 1238.57,-585.681 1235.08,-579.935 1237.65,-590.595 1237.65,-590.595"/>
</g>
<!-- ActiveRecord::Base -->
<g id="node14" class="node"><title>ActiveRecord::Base</title>
<ellipse fill="none" stroke="black" cx="944.226" cy="-952.5" rx="81.1422" ry="18"/>
<text text-anchor="middle" x="944.226" y="-948.3" font-family="Times,serif" font-size="14.00">ActiveRecord::Base</text>
</g>
<!-- ActiveRecord::Base&#45;&gt;Accident -->
<g id="edge1" class="edge"><title>ActiveRecord::Base&#45;&gt;Accident</title>
<path fill="none" stroke="black" d="M912.182,-935.949C895.103,-928.451 873.486,-920.192 853.226,-916 777.825,-900.398 227.852,-917.598 161.226,-879 146.026,-870.194 132.844,-857.454 121.698,-843.54"/>
</g>
<!-- ActiveRecord::Base&#45;&gt;Attraction -->
<g id="edge2" class="edge"><title>ActiveRecord::Base&#45;&gt;Attraction</title>
<path fill="none" stroke="black" d="M911.737,-935.879C894.718,-928.461 873.291,-920.295 853.226,-916 735.609,-890.822 415.45,-942.386 313.226,-879 306.644,-874.919 300.531,-870.032 294.871,-864.601"/>
</g>
<!-- ActiveRecord::Base&#45;&gt;Events -->
<g id="edge3" class="edge"><title>ActiveRecord::Base&#45;&gt;Events</title>
<path fill="none" stroke="black" d="M911.736,-935.883C894.717,-928.467 873.29,-920.301 853.226,-916 814.391,-907.675 530.841,-917.474 496.226,-898 473.811,-885.39 455.66,-864.947 441.504,-843.593"/>
</g>
<!-- ActiveRecord::Base&#45;&gt;Flagging -->
<g id="edge4" class="edge"><title>ActiveRecord::Base&#45;&gt;Flagging</title>
<path fill="none" stroke="black" d="M953.102,-934.396C960.189,-919.996 969.8,-898.662 975.226,-879 1010.89,-749.743 1091.25,-388.138 1016.23,-277 982.98,-227.748 938.318,-264.505 892.226,-227 871.196,-209.888 853.876,-185.317 841.199,-163.501"/>
</g>
<!-- ActiveRecord::Base&#45;&gt;Hour -->
<g id="edge5" class="edge"><title>ActiveRecord::Base&#45;&gt;Hour</title>
<path fill="none" stroke="black" d="M1000.81,-939.467C1032.85,-929.309 1069.89,-911.077 1087.23,-879 1117.49,-823.022 1141,-425.01 1150.99,-226.504"/>
</g>
<!-- ActiveRecord::Base&#45;&gt;Route -->
<g id="edge10" class="edge"><title>ActiveRecord::Base&#45;&gt;Route</title>
<path fill="none" stroke="black" d="M932.157,-934.461C921.106,-918.859 903.73,-894.329 885.449,-868.52"/>
</g>
<!-- ActiveRecord::Base&#45;&gt;RoutePoint -->
<g id="edge11" class="edge"><title>ActiveRecord::Base&#45;&gt;RoutePoint</title>
<path fill="none" stroke="black" d="M907.771,-936.348C891.254,-929.725 871.394,-922.094 853.226,-916 795.866,-896.761 765.191,-921.594 722.226,-879 637.545,-795.048 607.327,-659.267 596.901,-559.643"/>
</g>
<!-- ActiveRecord::Base&#45;&gt;RouteReview -->
<g id="edge12" class="edge"><title>ActiveRecord::Base&#45;&gt;RouteReview</title>
<path fill="none" stroke="black" d="M909.834,-935.979C893.056,-928.955 872.4,-921.101 853.226,-916 745.53,-887.348 691.221,-949.881 605.226,-879 499.358,-791.738 525.45,-723.216 502.226,-588 478.828,-451.773 449.038,-404.579 502.226,-277 522.046,-229.461 563.289,-188.703 599.455,-159.897"/>
</g>
<!-- ActiveRecord::Base&#45;&gt;User -->
<g id="edge19" class="edge"><title>ActiveRecord::Base&#45;&gt;User</title>
<path fill="none" stroke="black" d="M947.174,-934.48C955.431,-884.021 976.991,-730.966 958.226,-606 957.319,-599.958 956.242,-593.836 955.028,-587.681"/>
</g>
<!-- ActiveRecord::Base&#45;&gt;UserResponse -->
<g id="edge20" class="edge"><title>ActiveRecord::Base&#45;&gt;UserResponse</title>
<path fill="none" stroke="black" d="M994.735,-938.325C1015.29,-930.227 1037.05,-917.53 1049.23,-898 1124.38,-777.495 1058.11,-401.013 1059.23,-259 1059.27,-252.778 1060.92,-250.988 1059.23,-245 1052.59,-221.47 1040.39,-197.998 1027.48,-177.581"/>
</g>
<!-- ActiveRecord::Base&#45;&gt;Weather -->
<g id="edge22" class="edge"><title>ActiveRecord::Base&#45;&gt;Weather</title>
<path fill="none" stroke="black" d="M1014.33,-943.309C1050.47,-936.175 1093.5,-922.854 1125.23,-898 1152.2,-876.872 1171.95,-844.074 1185.19,-815.697"/>
</g>
<!-- ActiveRecord::Base&#45;&gt;WeatherPeriod -->
<g id="edge23" class="edge"><title>ActiveRecord::Base&#45;&gt;WeatherPeriod</title>
<path fill="none" stroke="black" d="M1020.21,-946.064C1109.59,-937.905 1249.92,-918.966 1282.23,-879 1348.57,-796.921 1339.97,-675.865 1317.45,-580.652"/>
</g>
</g>
</svg>
