<?xml version="1.0" encoding="UTF-8" standalone="no"?>
<!DOCTYPE svg PUBLIC "-//W3C//DTD SVG 1.1//EN"
 "http://www.w3.org/Graphics/SVG/1.1/DTD/svg11.dtd">
<!-- Generated by graphviz version 2.38.0 (20140413.2041)
 -->
<!-- Title: models_diagram Pages: 1 -->
<svg width="1369pt" height="983pt"
 viewBox="0.00 0.00 1368.96 983.00" xmlns="http://www.w3.org/2000/svg" xmlns:xlink="http://www.w3.org/1999/xlink">
<g id="graph0" class="graph" transform="scale(1 1) rotate(0) translate(4 979)">
<title>models_diagram</title>
<polygon fill="white" stroke="none" points="-4,4 -4,-979 1364.96,-979 1364.96,4 -4,4"/>
<!-- _diagram_info -->
<g id="node1" class="node"><title>_diagram_info</title>
<text text-anchor="start" x="645.538" y="-960.6" font-family="Times,serif" font-size="13.00">Models diagram</text>
<text text-anchor="start" x="645.538" y="-947.6" font-family="Times,serif" font-size="13.00">Date: Jun 25 2014 &#45; 14:35</text>
<text text-anchor="start" x="645.538" y="-934.6" font-family="Times,serif" font-size="13.00">Migration version: 20140603143054</text>
<text text-anchor="start" x="645.538" y="-921.6" font-family="Times,serif" font-size="13.00">Generated by RailRoady 1.1.1</text>
<text text-anchor="start" x="645.538" y="-908.6" font-family="Times,serif" font-size="13.00">http://railroady.prestonlee.com</text>
</g>
<!-- Accident -->
<g id="node2" class="node"><title>Accident</title>
<path fill="none" stroke="black" d="M12,-666.5C12,-666.5 140.452,-666.5 140.452,-666.5 146.452,-666.5 152.452,-672.5 152.452,-678.5 152.452,-678.5 152.452,-824.5 152.452,-824.5 152.452,-830.5 146.452,-836.5 140.452,-836.5 140.452,-836.5 12,-836.5 12,-836.5 6,-836.5 0,-830.5 0,-824.5 0,-824.5 0,-678.5 0,-678.5 0,-672.5 6,-666.5 12,-666.5"/>
<text text-anchor="middle" x="76.2261" y="-821.3" font-family="Times,serif" font-size="14.00">Accident</text>
<polyline fill="none" stroke="black" points="0,-814.5 152.452,-814.5 "/>
<text text-anchor="start" x="8" y="-799.3" font-family="Times,serif" font-size="14.00">id :integer</text>
<text text-anchor="start" x="8" y="-785.3" font-family="Times,serif" font-size="14.00">date :date</text>
<text text-anchor="start" x="8" y="-771.3" font-family="Times,serif" font-size="14.00">time :datetime</text>
<text text-anchor="start" x="8" y="-757.3" font-family="Times,serif" font-size="14.00">severity :integer</text>
<text text-anchor="start" x="8" y="-743.3" font-family="Times,serif" font-size="14.00">police_response :integer</text>
<text text-anchor="start" x="8" y="-729.3" font-family="Times,serif" font-size="14.00">casualities :integer</text>
<text text-anchor="start" x="8" y="-715.3" font-family="Times,serif" font-size="14.00">created_at :datetime</text>
<text text-anchor="start" x="8" y="-701.3" font-family="Times,serif" font-size="14.00">updated_at :datetime</text>
<text text-anchor="start" x="8" y="-687.3" font-family="Times,serif" font-size="14.00">lat :float</text>
<text text-anchor="start" x="8" y="-673.3" font-family="Times,serif" font-size="14.00">long :float</text>
</g>
<!-- Attraction -->
<g id="node3" class="node"><title>Attraction</title>
<path fill="none" stroke="black" d="M182.721,-645.5C182.721,-645.5 291.731,-645.5 291.731,-645.5 297.731,-645.5 303.731,-651.5 303.731,-657.5 303.731,-657.5 303.731,-845.5 303.731,-845.5 303.731,-851.5 297.731,-857.5 291.731,-857.5 291.731,-857.5 182.721,-857.5 182.721,-857.5 176.721,-857.5 170.721,-851.5 170.721,-845.5 170.721,-845.5 170.721,-657.5 170.721,-657.5 170.721,-651.5 176.721,-645.5 182.721,-645.5"/>
<text text-anchor="middle" x="237.226" y="-842.3" font-family="Times,serif" font-size="14.00">Attraction</text>
<polyline fill="none" stroke="black" points="170.721,-835.5 303.731,-835.5 "/>
<text text-anchor="start" x="178.721" y="-820.3" font-family="Times,serif" font-size="14.00">id :integer</text>
<text text-anchor="start" x="178.721" y="-806.3" font-family="Times,serif" font-size="14.00">type :integer</text>
<text text-anchor="start" x="178.721" y="-792.3" font-family="Times,serif" font-size="14.00">lat :float</text>
<text text-anchor="start" x="178.721" y="-778.3" font-family="Times,serif" font-size="14.00">long :float</text>
<text text-anchor="start" x="178.721" y="-764.3" font-family="Times,serif" font-size="14.00">name :string</text>
<text text-anchor="start" x="178.721" y="-750.3" font-family="Times,serif" font-size="14.00">description :text</text>
<text text-anchor="start" x="178.721" y="-736.3" font-family="Times,serif" font-size="14.00">contact_tel :string</text>
<text text-anchor="start" x="178.721" y="-722.3" font-family="Times,serif" font-size="14.00">address1 :string</text>
<text text-anchor="start" x="178.721" y="-708.3" font-family="Times,serif" font-size="14.00">address2 :string</text>
<text text-anchor="start" x="178.721" y="-694.3" font-family="Times,serif" font-size="14.00">town :string</text>
<text text-anchor="start" x="178.721" y="-680.3" font-family="Times,serif" font-size="14.00">postcode :string</text>
<text text-anchor="start" x="178.721" y="-666.3" font-family="Times,serif" font-size="14.00">created_at :datetime</text>
<text text-anchor="start" x="178.721" y="-652.3" font-family="Times,serif" font-size="14.00">updated_at :datetime</text>
</g>
<!-- Events -->
<g id="node4" class="node"><title>Events</title>
<path fill="none" stroke="black" d="M334.11,-666.5C334.11,-666.5 470.342,-666.5 470.342,-666.5 476.342,-666.5 482.342,-672.5 482.342,-678.5 482.342,-678.5 482.342,-824.5 482.342,-824.5 482.342,-830.5 476.342,-836.5 470.342,-836.5 470.342,-836.5 334.11,-836.5 334.11,-836.5 328.11,-836.5 322.11,-830.5 322.11,-824.5 322.11,-824.5 322.11,-678.5 322.11,-678.5 322.11,-672.5 328.11,-666.5 334.11,-666.5"/>
<text text-anchor="middle" x="402.226" y="-821.3" font-family="Times,serif" font-size="14.00">Events</text>
<polyline fill="none" stroke="black" points="322.11,-814.5 482.342,-814.5 "/>
<text text-anchor="start" x="330.11" y="-799.3" font-family="Times,serif" font-size="14.00">id :integer</text>
<text text-anchor="start" x="330.11" y="-785.3" font-family="Times,serif" font-size="14.00">type :integer</text>
<text text-anchor="start" x="330.11" y="-771.3" font-family="Times,serif" font-size="14.00">attraction_id :integer</text>
<text text-anchor="start" x="330.11" y="-757.3" font-family="Times,serif" font-size="14.00">name :string</text>
<text text-anchor="start" x="330.11" y="-743.3" font-family="Times,serif" font-size="14.00">description :text</text>
<text text-anchor="start" x="330.11" y="-729.3" font-family="Times,serif" font-size="14.00">start_time :datetime</text>
<text text-anchor="start" x="330.11" y="-715.3" font-family="Times,serif" font-size="14.00">end_time :datetime</text>
<text text-anchor="start" x="330.11" y="-701.3" font-family="Times,serif" font-size="14.00">road_closure_details :text</text>
<text text-anchor="start" x="330.11" y="-687.3" font-family="Times,serif" font-size="14.00">created_at :datetime</text>
<text text-anchor="start" x="330.11" y="-673.3" font-family="Times,serif" font-size="14.00">updated_at :datetime</text>
</g>
<!-- Flagging -->
<g id="node5" class="node"><title>Flagging</title>
<path fill="none" stroke="black" d="M771.721,-49.5C771.721,-49.5 880.731,-49.5 880.731,-49.5 886.731,-49.5 892.731,-55.5 892.731,-61.5 892.731,-61.5 892.731,-137.5 892.731,-137.5 892.731,-143.5 886.731,-149.5 880.731,-149.5 880.731,-149.5 771.721,-149.5 771.721,-149.5 765.721,-149.5 759.721,-143.5 759.721,-137.5 759.721,-137.5 759.721,-61.5 759.721,-61.5 759.721,-55.5 765.721,-49.5 771.721,-49.5"/>
<text text-anchor="middle" x="826.226" y="-134.3" font-family="Times,serif" font-size="14.00">Flagging</text>
<polyline fill="none" stroke="black" points="759.721,-127.5 892.731,-127.5 "/>
<text text-anchor="start" x="767.721" y="-112.3" font-family="Times,serif" font-size="14.00">id :integer</text>
<text text-anchor="start" x="767.721" y="-98.3" font-family="Times,serif" font-size="14.00">user_id :integer</text>
<text text-anchor="start" x="767.721" y="-84.3" font-family="Times,serif" font-size="14.00">route_id :integer</text>
<text text-anchor="start" x="767.721" y="-70.3" font-family="Times,serif" font-size="14.00">created_at :datetime</text>
<text text-anchor="start" x="767.721" y="-56.3" font-family="Times,serif" font-size="14.00">updated_at :datetime</text>
</g>
<!-- Hour -->
<g id="node6" class="node"><title>Hour</title>
<path fill="none" stroke="black" d="M1096.33,-0.5C1096.33,-0.5 1234.12,-0.5 1234.12,-0.5 1240.12,-0.5 1246.12,-6.5 1246.12,-12.5 1246.12,-12.5 1246.12,-186.5 1246.12,-186.5 1246.12,-192.5 1240.12,-198.5 1234.12,-198.5 1234.12,-198.5 1096.33,-198.5 1096.33,-198.5 1090.33,-198.5 1084.33,-192.5 1084.33,-186.5 1084.33,-186.5 1084.33,-12.5 1084.33,-12.5 1084.33,-6.5 1090.33,-0.5 1096.33,-0.5"/>
<text text-anchor="middle" x="1165.23" y="-183.3" font-family="Times,serif" font-size="14.00">Hour</text>
<polyline fill="none" stroke="black" points="1084.33,-176.5 1246.12,-176.5 "/>
<text text-anchor="start" x="1092.33" y="-161.3" font-family="Times,serif" font-size="14.00">id :integer</text>
<text text-anchor="start" x="1092.33" y="-147.3" font-family="Times,serif" font-size="14.00">user_id :integer</text>
<text text-anchor="start" x="1092.33" y="-133.3" font-family="Times,serif" font-size="14.00">time :datetime</text>
<text text-anchor="start" x="1092.33" y="-119.3" font-family="Times,serif" font-size="14.00">distance :float</text>
<text text-anchor="start" x="1092.33" y="-105.3" font-family="Times,serif" font-size="14.00">average_speed :float</text>
<text text-anchor="start" x="1092.33" y="-91.3" font-family="Times,serif" font-size="14.00">created_at :datetime</text>
<text text-anchor="start" x="1092.33" y="-77.3" font-family="Times,serif" font-size="14.00">updated_at :datetime</text>
<text text-anchor="start" x="1092.33" y="-63.3" font-family="Times,serif" font-size="14.00">max_speed :float</text>
<text text-anchor="start" x="1092.33" y="-49.3" font-family="Times,serif" font-size="14.00">min_speed :float</text>
<text text-anchor="start" x="1092.33" y="-35.3" font-family="Times,serif" font-size="14.00">num_points :integer</text>
<text text-anchor="start" x="1092.33" y="-21.3" font-family="Times,serif" font-size="14.00">routes_started :integer</text>
<text text-anchor="start" x="1092.33" y="-7.3" font-family="Times,serif" font-size="14.00">routes_completed :integer</text>
</g>
<!-- Route -->
<g id="node7" class="node"><title>Route</title>
<path fill="none" stroke="black" d="M743.217,-638.5C743.217,-638.5 873.235,-638.5 873.235,-638.5 879.235,-638.5 885.235,-644.5 885.235,-650.5 885.235,-650.5 885.235,-852.5 885.235,-852.5 885.235,-858.5 879.235,-864.5 873.235,-864.5 873.235,-864.5 743.217,-864.5 743.217,-864.5 737.217,-864.5 731.217,-858.5 731.217,-852.5 731.217,-852.5 731.217,-650.5 731.217,-650.5 731.217,-644.5 737.217,-638.5 743.217,-638.5"/>
<text text-anchor="middle" x="808.226" y="-849.3" font-family="Times,serif" font-size="14.00">Route</text>
<polyline fill="none" stroke="black" points="731.217,-842.5 885.235,-842.5 "/>
<text text-anchor="start" x="739.217" y="-827.3" font-family="Times,serif" font-size="14.00">id :integer</text>
<text text-anchor="start" x="739.217" y="-813.3" font-family="Times,serif" font-size="14.00">name :string</text>
<text text-anchor="start" x="739.217" y="-799.3" font-family="Times,serif" font-size="14.00">lat :float</text>
<text text-anchor="start" x="739.217" y="-785.3" font-family="Times,serif" font-size="14.00">long :float</text>
<text text-anchor="start" x="739.217" y="-771.3" font-family="Times,serif" font-size="14.00">total_distance :float</text>
<text text-anchor="start" x="739.217" y="-757.3" font-family="Times,serif" font-size="14.00">mode :integer</text>
<text text-anchor="start" x="739.217" y="-743.3" font-family="Times,serif" font-size="14.00">created_at :datetime</text>
<text text-anchor="start" x="739.217" y="-729.3" font-family="Times,serif" font-size="14.00">updated_at :datetime</text>
<text text-anchor="start" x="739.217" y="-715.3" font-family="Times,serif" font-size="14.00">start_time :datetime</text>
<text text-anchor="start" x="739.217" y="-701.3" font-family="Times,serif" font-size="14.00">end_time :datetime</text>
<text text-anchor="start" x="739.217" y="-687.3" font-family="Times,serif" font-size="14.00">total_time :integer</text>
<text text-anchor="start" x="739.217" y="-673.3" font-family="Times,serif" font-size="14.00">user_id :integer</text>
<text text-anchor="start" x="739.217" y="-659.3" font-family="Times,serif" font-size="14.00">start_maidenhead :string</text>
<text text-anchor="start" x="739.217" y="-645.3" font-family="Times,serif" font-size="14.00">end_maidenhead :string</text>
</g>
<!-- Route&#45;&gt;Flagging -->
<g id="edge8" class="edge"><title>Route&#45;&gt;Flagging</title>
<path fill="none" stroke="#33b280" d="M796.867,-629.939C795.824,-615.811 794.906,-601.594 794.226,-588 786.3,-429.516 790.337,-389.678 789.226,-231 789.183,-224.778 788.273,-223.149 789.226,-217 792.201,-197.802 797.78,-177.436 803.72,-159.193"/>
<ellipse fill="none" stroke="#33b280" cx="797.193" cy="-634.254" rx="4" ry="4"/>
<polygon fill="#33b280" stroke="#33b280" points="803.764,-159.063 811.211,-151.013 805.355,-154.322 806.945,-149.582 806.945,-149.582 806.945,-149.582 805.355,-154.322 802.679,-148.15 803.764,-159.063 803.764,-159.063"/>
</g>
<!-- RoutePoint -->
<g id="node8" class="node"><title>RoutePoint</title>
<path fill="none" stroke="black" d="M523.341,-291.5C523.341,-291.5 661.111,-291.5 661.111,-291.5 667.111,-291.5 673.111,-297.5 673.111,-303.5 673.111,-303.5 673.111,-533.5 673.111,-533.5 673.111,-539.5 667.111,-545.5 661.111,-545.5 661.111,-545.5 523.341,-545.5 523.341,-545.5 517.341,-545.5 511.341,-539.5 511.341,-533.5 511.341,-533.5 511.341,-303.5 511.341,-303.5 511.341,-297.5 517.341,-291.5 523.341,-291.5"/>
<text text-anchor="middle" x="592.226" y="-530.3" font-family="Times,serif" font-size="14.00">RoutePoint</text>
<polyline fill="none" stroke="black" points="511.341,-523.5 673.111,-523.5 "/>
<text text-anchor="start" x="519.341" y="-508.3" font-family="Times,serif" font-size="14.00">id :integer</text>
<text text-anchor="start" x="519.341" y="-494.3" font-family="Times,serif" font-size="14.00">route_id :integer</text>
<text text-anchor="start" x="519.341" y="-480.3" font-family="Times,serif" font-size="14.00">lat :float</text>
<text text-anchor="start" x="519.341" y="-466.3" font-family="Times,serif" font-size="14.00">long :float</text>
<text text-anchor="start" x="519.341" y="-452.3" font-family="Times,serif" font-size="14.00">altitude :float</text>
<text text-anchor="start" x="519.341" y="-438.3" font-family="Times,serif" font-size="14.00">on_road :boolean</text>
<text text-anchor="start" x="519.341" y="-424.3" font-family="Times,serif" font-size="14.00">street_name :string</text>
<text text-anchor="start" x="519.341" y="-410.3" font-family="Times,serif" font-size="14.00">created_at :datetime</text>
<text text-anchor="start" x="519.341" y="-396.3" font-family="Times,serif" font-size="14.00">updated_at :datetime</text>
<text text-anchor="start" x="519.341" y="-382.3" font-family="Times,serif" font-size="14.00">time :datetime</text>
<text text-anchor="start" x="519.341" y="-368.3" font-family="Times,serif" font-size="14.00">is_important :boolean</text>
<text text-anchor="start" x="519.341" y="-354.3" font-family="Times,serif" font-size="14.00">kph :float</text>
<text text-anchor="start" x="519.341" y="-340.3" font-family="Times,serif" font-size="14.00">vertical_accuracy :float</text>
<text text-anchor="start" x="519.341" y="-326.3" font-family="Times,serif" font-size="14.00">horizontal_accuracy :float</text>
<text text-anchor="start" x="519.341" y="-312.3" font-family="Times,serif" font-size="14.00">course :float</text>
<text text-anchor="start" x="519.341" y="-298.3" font-family="Times,serif" font-size="14.00">maidenhead :string</text>
</g>
<!-- Route&#45;&gt;RoutePoint -->
<g id="edge7" class="edge"><title>Route&#45;&gt;RoutePoint</title>
<path fill="none" stroke="#59f93a" d="M724.977,-689.896C701.764,-669.764 678.217,-645.828 660.999,-620 647.812,-600.22 636.901,-577.655 627.958,-554.971"/>
<ellipse fill="none" stroke="#59f93a" cx="728.146" cy="-692.603" rx="4.00002" ry="4.00002"/>
<polygon fill="#59f93a" stroke="#59f93a" points="627.944,-554.936 628.575,-543.988 626.158,-550.265 624.372,-545.595 624.372,-545.595 624.372,-545.595 626.158,-550.265 620.169,-547.203 627.944,-554.936 627.944,-554.936"/>
<text text-anchor="middle" x="678.34" y="-608.8" font-family="Times,serif" font-size="14.00">points</text>
</g>
<!-- RouteReview -->
<g id="node9" class="node"><title>RouteReview</title>
<path fill="none" stroke="black" d="M580.89,-21.5C580.89,-21.5 729.562,-21.5 729.562,-21.5 735.562,-21.5 741.562,-27.5 741.562,-33.5 741.562,-33.5 741.562,-165.5 741.562,-165.5 741.562,-171.5 735.562,-177.5 729.562,-177.5 729.562,-177.5 580.89,-177.5 580.89,-177.5 574.89,-177.5 568.89,-171.5 568.89,-165.5 568.89,-165.5 568.89,-33.5 568.89,-33.5 568.89,-27.5 574.89,-21.5 580.89,-21.5"/>
<text text-anchor="middle" x="655.226" y="-162.3" font-family="Times,serif" font-size="14.00">RouteReview</text>
<polyline fill="none" stroke="black" points="568.89,-155.5 741.562,-155.5 "/>
<text text-anchor="start" x="576.89" y="-140.3" font-family="Times,serif" font-size="14.00">id :integer</text>
<text text-anchor="start" x="576.89" y="-126.3" font-family="Times,serif" font-size="14.00">route_id :integer</text>
<text text-anchor="start" x="576.89" y="-112.3" font-family="Times,serif" font-size="14.00">comment :text</text>
<text text-anchor="start" x="576.89" y="-98.3" font-family="Times,serif" font-size="14.00">user_id :integer</text>
<text text-anchor="start" x="576.89" y="-84.3" font-family="Times,serif" font-size="14.00">safety_rating :integer</text>
<text text-anchor="start" x="576.89" y="-70.3" font-family="Times,serif" font-size="14.00">difficulty_rating :integer</text>
<text text-anchor="start" x="576.89" y="-56.3" font-family="Times,serif" font-size="14.00">environment_rating :integer</text>
<text text-anchor="start" x="576.89" y="-42.3" font-family="Times,serif" font-size="14.00">created_at :datetime</text>
<text text-anchor="start" x="576.89" y="-28.3" font-family="Times,serif" font-size="14.00">updated_at :datetime</text>
</g>
<!-- Route&#45;&gt;RouteReview -->
<g id="edge6" class="edge"><title>Route&#45;&gt;RouteReview</title>
<path fill="none" stroke="#cabc71" d="M760.398,-630.295C755.559,-616.154 751.01,-601.836 747.136,-588 741.737,-568.712 695.643,-319.989 670.855,-185.494"/>
<ellipse fill="none" stroke="#cabc71" cx="761.804" cy="-634.349" rx="4.00001" ry="4.00001"/>
<ellipse fill="#cabc71" stroke="#cabc71" cx="670.125" cy="-181.529" rx="4.00001" ry="4.00001"/>
<text text-anchor="middle" x="766.271" y="-414.3" font-family="Times,serif" font-size="14.00">review</text>
</g>
<!-- User -->
<g id="node10" class="node"><title>User</title>
<path fill="none" stroke="black" d="M814.948,-249.5C814.948,-249.5 995.504,-249.5 995.504,-249.5 1001.5,-249.5 1007.5,-255.5 1007.5,-261.5 1007.5,-261.5 1007.5,-575.5 1007.5,-575.5 1007.5,-581.5 1001.5,-587.5 995.504,-587.5 995.504,-587.5 814.948,-587.5 814.948,-587.5 808.948,-587.5 802.948,-581.5 802.948,-575.5 802.948,-575.5 802.948,-261.5 802.948,-261.5 802.948,-255.5 808.948,-249.5 814.948,-249.5"/>
<text text-anchor="middle" x="905.226" y="-572.3" font-family="Times,serif" font-size="14.00">User</text>
<polyline fill="none" stroke="black" points="802.948,-565.5 1007.5,-565.5 "/>
<text text-anchor="start" x="810.948" y="-550.3" font-family="Times,serif" font-size="14.00">id :integer</text>
<text text-anchor="start" x="810.948" y="-536.3" font-family="Times,serif" font-size="14.00">email :string</text>
<text text-anchor="start" x="810.948" y="-522.3" font-family="Times,serif" font-size="14.00">encrypted_password :string</text>
<text text-anchor="start" x="810.948" y="-508.3" font-family="Times,serif" font-size="14.00">reset_password_token :string</text>
<text text-anchor="start" x="810.948" y="-494.3" font-family="Times,serif" font-size="14.00">reset_password_sent_at :datetime</text>
<text text-anchor="start" x="810.948" y="-480.3" font-family="Times,serif" font-size="14.00">remember_created_at :datetime</text>
<text text-anchor="start" x="810.948" y="-466.3" font-family="Times,serif" font-size="14.00">sign_in_count :integer</text>
<text text-anchor="start" x="810.948" y="-452.3" font-family="Times,serif" font-size="14.00">current_sign_in_at :datetime</text>
<text text-anchor="start" x="810.948" y="-438.3" font-family="Times,serif" font-size="14.00">last_sign_in_at :datetime</text>
<text text-anchor="start" x="810.948" y="-424.3" font-family="Times,serif" font-size="14.00">current_sign_in_ip :string</text>
<text text-anchor="start" x="810.948" y="-410.3" font-family="Times,serif" font-size="14.00">last_sign_in_ip :string</text>
<text text-anchor="start" x="810.948" y="-396.3" font-family="Times,serif" font-size="14.00">created_at :datetime</text>
<text text-anchor="start" x="810.948" y="-382.3" font-family="Times,serif" font-size="14.00">updated_at :datetime</text>
<text text-anchor="start" x="810.948" y="-368.3" font-family="Times,serif" font-size="14.00">encrypted_first_name :text</text>
<text text-anchor="start" x="810.948" y="-354.3" font-family="Times,serif" font-size="14.00">encrypted_last_name :text</text>
<text text-anchor="start" x="810.948" y="-340.3" font-family="Times,serif" font-size="14.00">gender :integer</text>
<text text-anchor="start" x="810.948" y="-326.3" font-family="Times,serif" font-size="14.00">authentication_token :string</text>
<text text-anchor="start" x="810.948" y="-312.3" font-family="Times,serif" font-size="14.00">profile_pic_file_name :string</text>
<text text-anchor="start" x="810.948" y="-298.3" font-family="Times,serif" font-size="14.00">profile_pic_content_type :string</text>
<text text-anchor="start" x="810.948" y="-284.3" font-family="Times,serif" font-size="14.00">profile_pic_file_size :integer</text>
<text text-anchor="start" x="810.948" y="-270.3" font-family="Times,serif" font-size="14.00">profile_pic_updated_at :datetime</text>
<text text-anchor="start" x="810.948" y="-256.3" font-family="Times,serif" font-size="14.00">year_of_birth :integer</text>
</g>
<!-- Route&#45;&gt;User -->
<g id="edge9" class="edge"><title>Route&#45;&gt;User</title>
<path fill="none" stroke="#8d9a6b" d="M804.728,-628.232C805.766,-620.663 807.135,-613.2 808.902,-606 809.604,-603.138 810.359,-600.271 811.16,-597.402"/>
<polygon fill="#8d9a6b" stroke="#8d9a6b" points="804.72,-628.3 799.08,-637.704 804.134,-633.266 803.549,-638.231 803.549,-638.231 803.549,-638.231 804.134,-633.266 808.018,-638.759 804.72,-628.3 804.72,-628.3"/>
<polygon fill="#8d9a6b" stroke="#8d9a6b" points="811.212,-597.228 818.378,-588.928 812.639,-592.436 814.065,-587.644 814.065,-587.644 814.065,-587.644 812.639,-592.436 809.752,-586.36 811.212,-597.228 811.212,-597.228"/>
<text text-anchor="middle" x="831.388" y="-608.8" font-family="Times,serif" font-size="14.00">flaggers</text>
</g>
<!-- User&#45;&gt;Flagging -->
<g id="edge16" class="edge"><title>User&#45;&gt;Flagging</title>
<path fill="none" stroke="#a736cf" d="M880.465,-241.479C878.527,-233.166 876.45,-224.97 874.226,-217 868.844,-197.712 861.173,-177.321 853.539,-159.083"/>
<ellipse fill="none" stroke="#a736cf" cx="881.395" cy="-245.58" rx="4.00001" ry="4.00001"/>
<polygon fill="#a736cf" stroke="#a736cf" points="853.485,-158.957 853.702,-147.993 851.524,-154.358 849.562,-149.759 849.562,-149.759 849.562,-149.759 851.524,-154.358 845.423,-151.524 853.485,-158.957 853.485,-158.957"/>
</g>
<!-- User&#45;&gt;Hour -->
<g id="edge18" class="edge"><title>User&#45;&gt;Hour</title>
<path fill="none" stroke="#1dc7e7" d="M1012.73,-286.433C1034.52,-259.861 1057.18,-232.228 1078.17,-206.646"/>
<ellipse fill="none" stroke="#1dc7e7" cx="1010.15" cy="-289.575" rx="4.00002" ry="4.00002"/>
<polygon fill="#1dc7e7" stroke="#1dc7e7" points="1078.28,-206.507 1088.1,-201.629 1081.45,-202.641 1084.62,-198.775 1084.62,-198.775 1084.62,-198.775 1081.45,-202.641 1081.14,-195.922 1078.28,-206.507 1078.28,-206.507"/>
<text text-anchor="middle" x="1078.67" y="-219.8" font-family="Times,serif" font-size="14.00">stats</text>
</g>
<!-- User&#45;&gt;Route -->
<g id="edge14" class="edge"><title>User&#45;&gt;Route</title>
<path fill="none" stroke="#b8786a" d="M860.38,-595.635C858.016,-603.887 855.626,-612.042 853.226,-620 852.383,-622.796 851.518,-625.622 850.635,-628.469"/>
<ellipse fill="none" stroke="#b8786a" cx="861.542" cy="-591.544" rx="4.00001" ry="4.00001"/>
<polygon fill="#b8786a" stroke="#b8786a" points="850.571,-628.672 843.278,-636.861 849.071,-633.441 847.571,-638.211 847.571,-638.211 847.571,-638.211 849.071,-633.441 851.864,-639.561 850.571,-628.672 850.571,-628.672"/>
</g>
<!-- User&#45;&gt;Route -->
<g id="edge17" class="edge"><title>User&#45;&gt;Route</title>
<path fill="none" stroke="#b03cb5" d="M875.822,-597.439C873.756,-605.103 871.559,-612.653 869.226,-620 868.291,-622.944 867.305,-625.908 866.273,-628.883"/>
<polygon fill="#b03cb5" stroke="#b03cb5" points="875.845,-597.352 882.725,-588.813 877.108,-592.514 878.371,-587.676 878.371,-587.676 878.371,-587.676 877.108,-592.514 874.017,-586.54 875.845,-597.352 875.845,-597.352"/>
<polygon fill="#b03cb5" stroke="#b03cb5" points="866.23,-629.003 858.604,-636.883 864.534,-633.706 862.837,-638.41 862.837,-638.41 862.837,-638.41 864.534,-633.706 867.07,-639.937 866.23,-629.003 866.23,-629.003"/>
<text text-anchor="middle" x="914.44" y="-608.8" font-family="Times,serif" font-size="14.00">flagged_routes</text>
</g>
<!-- User&#45;&gt;RouteReview -->
<g id="edge13" class="edge"><title>User&#45;&gt;RouteReview</title>
<path fill="none" stroke="#75c6e5" d="M797.636,-281.076C772.187,-248.806 745.756,-215.291 722.673,-186.023"/>
<ellipse fill="none" stroke="#75c6e5" cx="800.343" cy="-284.509" rx="4.00002" ry="4.00002"/>
<polygon fill="#75c6e5" stroke="#75c6e5" points="722.448,-185.737 719.789,-175.099 719.352,-181.811 716.256,-177.885 716.256,-177.885 716.256,-177.885 719.352,-181.811 712.722,-180.672 722.448,-185.737 722.448,-185.737"/>
<text text-anchor="middle" x="779.995" y="-219.8" font-family="Times,serif" font-size="14.00">reviews</text>
</g>
<!-- UserResponse -->
<g id="node11" class="node"><title>UserResponse</title>
<path fill="none" stroke="black" d="M922.452,-35.5C922.452,-35.5 1054,-35.5 1054,-35.5 1060,-35.5 1066,-41.5 1066,-47.5 1066,-47.5 1066,-151.5 1066,-151.5 1066,-157.5 1060,-163.5 1054,-163.5 1054,-163.5 922.452,-163.5 922.452,-163.5 916.452,-163.5 910.452,-157.5 910.452,-151.5 910.452,-151.5 910.452,-47.5 910.452,-47.5 910.452,-41.5 916.452,-35.5 922.452,-35.5"/>
<text text-anchor="middle" x="988.226" y="-148.3" font-family="Times,serif" font-size="14.00">UserResponse</text>
<polyline fill="none" stroke="black" points="910.452,-141.5 1066,-141.5 "/>
<text text-anchor="start" x="918.452" y="-126.3" font-family="Times,serif" font-size="14.00">id :integer</text>
<text text-anchor="start" x="918.452" y="-112.3" font-family="Times,serif" font-size="14.00">user_id :integer</text>
<text text-anchor="start" x="918.452" y="-98.3" font-family="Times,serif" font-size="14.00">usage_per_week :integer</text>
<text text-anchor="start" x="918.452" y="-84.3" font-family="Times,serif" font-size="14.00">usage_type :integer</text>
<text text-anchor="start" x="918.452" y="-70.3" font-family="Times,serif" font-size="14.00">usage_reason :integer</text>
<text text-anchor="start" x="918.452" y="-56.3" font-family="Times,serif" font-size="14.00">created_at :datetime</text>
<text text-anchor="start" x="918.452" y="-42.3" font-family="Times,serif" font-size="14.00">updated_at :datetime</text>
</g>
<!-- User&#45;&gt;UserResponse -->
<g id="edge15" class="edge"><title>User&#45;&gt;UserResponse</title>
<path fill="none" stroke="#4e0869" d="M951.335,-241.398C957.589,-217.51 963.702,-194.162 969.096,-173.561"/>
<ellipse fill="none" stroke="#4e0869" cx="950.291" cy="-245.384" rx="4.00001" ry="4.00001"/>
<polygon fill="#4e0869" stroke="#4e0869" points="969.151,-173.352 976.037,-164.818 970.418,-168.515 971.684,-163.679 971.684,-163.679 971.684,-163.679 970.418,-168.515 967.331,-162.539 969.151,-173.352 969.151,-173.352"/>
</g>
<!-- Weather -->
<g id="node12" class="node"><title>Weather</title>
<path fill="none" stroke="black" d="M1151.72,-694.5C1151.72,-694.5 1260.73,-694.5 1260.73,-694.5 1266.73,-694.5 1272.73,-700.5 1272.73,-706.5 1272.73,-706.5 1272.73,-796.5 1272.73,-796.5 1272.73,-802.5 1266.73,-808.5 1260.73,-808.5 1260.73,-808.5 1151.72,-808.5 1151.72,-808.5 1145.72,-808.5 1139.72,-802.5 1139.72,-796.5 1139.72,-796.5 1139.72,-706.5 1139.72,-706.5 1139.72,-700.5 1145.72,-694.5 1151.72,-694.5"/>
<text text-anchor="middle" x="1206.23" y="-793.3" font-family="Times,serif" font-size="14.00">Weather</text>
<polyline fill="none" stroke="black" points="1139.72,-786.5 1272.73,-786.5 "/>
<text text-anchor="start" x="1147.72" y="-771.3" font-family="Times,serif" font-size="14.00">id :integer</text>
<text text-anchor="start" x="1147.72" y="-757.3" font-family="Times,serif" font-size="14.00">date :datetime</text>
<text text-anchor="start" x="1147.72" y="-743.3" font-family="Times,serif" font-size="14.00">sunset :datetime</text>
<text text-anchor="start" x="1147.72" y="-729.3" font-family="Times,serif" font-size="14.00">sunrise :datetime</text>
<text text-anchor="start" x="1147.72" y="-715.3" font-family="Times,serif" font-size="14.00">created_at :datetime</text>
<text text-anchor="start" x="1147.72" y="-701.3" font-family="Times,serif" font-size="14.00">updated_at :datetime</text>
</g>
<!-- WeatherPeriod -->
<g id="node13" class="node"><title>WeatherPeriod</title>
<path fill="none" stroke="black" d="M1185.49,-270.5C1185.49,-270.5 1348.96,-270.5 1348.96,-270.5 1354.96,-270.5 1360.96,-276.5 1360.96,-282.5 1360.96,-282.5 1360.96,-554.5 1360.96,-554.5 1360.96,-560.5 1354.96,-566.5 1348.96,-566.5 1348.96,-566.5 1185.49,-566.5 1185.49,-566.5 1179.49,-566.5 1173.49,-560.5 1173.49,-554.5 1173.49,-554.5 1173.49,-282.5 1173.49,-282.5 1173.49,-276.5 1179.49,-270.5 1185.49,-270.5"/>
<text text-anchor="middle" x="1267.23" y="-551.3" font-family="Times,serif" font-size="14.00">WeatherPeriod</text>
<polyline fill="none" stroke="black" points="1173.49,-544.5 1360.96,-544.5 "/>
<text text-anchor="start" x="1181.49" y="-529.3" font-family="Times,serif" font-size="14.00">id :integer</text>
<text text-anchor="start" x="1181.49" y="-515.3" font-family="Times,serif" font-size="14.00">weather_id :integer</text>
<text text-anchor="start" x="1181.49" y="-501.3" font-family="Times,serif" font-size="14.00">start_time :datetime</text>
<text text-anchor="start" x="1181.49" y="-487.3" font-family="Times,serif" font-size="14.00">precipitation_type :string</text>
<text text-anchor="start" x="1181.49" y="-473.3" font-family="Times,serif" font-size="14.00">wind_speed :float</text>
<text text-anchor="start" x="1181.49" y="-459.3" font-family="Times,serif" font-size="14.00">created_at :datetime</text>
<text text-anchor="start" x="1181.49" y="-445.3" font-family="Times,serif" font-size="14.00">updated_at :datetime</text>
<text text-anchor="start" x="1181.49" y="-431.3" font-family="Times,serif" font-size="14.00">summary :string</text>
<text text-anchor="start" x="1181.49" y="-417.3" font-family="Times,serif" font-size="14.00">icon :string</text>
<text text-anchor="start" x="1181.49" y="-403.3" font-family="Times,serif" font-size="14.00">precipitation_intensity :float</text>
<text text-anchor="start" x="1181.49" y="-389.3" font-family="Times,serif" font-size="14.00">precipitation_probability :float</text>
<text text-anchor="start" x="1181.49" y="-375.3" font-family="Times,serif" font-size="14.00">temperature :float</text>
<text text-anchor="start" x="1181.49" y="-361.3" font-family="Times,serif" font-size="14.00">dew_point :float</text>
<text text-anchor="start" x="1181.49" y="-347.3" font-family="Times,serif" font-size="14.00">humidity :float</text>
<text text-anchor="start" x="1181.49" y="-333.3" font-family="Times,serif" font-size="14.00">wind_bearing :float</text>
<text text-anchor="start" x="1181.49" y="-319.3" font-family="Times,serif" font-size="14.00">visibility :float</text>
<text text-anchor="start" x="1181.49" y="-305.3" font-family="Times,serif" font-size="14.00">cloud_cover :float</text>
<text text-anchor="start" x="1181.49" y="-291.3" font-family="Times,serif" font-size="14.00">pressure :float</text>
<text text-anchor="start" x="1181.49" y="-277.3" font-family="Times,serif" font-size="14.00">ozone :float</text>
</g>
<!-- Weather&#45;&gt;WeatherPeriod -->
<g id="edge21" class="edge"><title>Weather&#45;&gt;WeatherPeriod</title>
<path fill="none" stroke="#5a7e67" d="M1218.05,-686.314C1223.86,-654.797 1231.14,-615.313 1238.3,-576.457"/>
<ellipse fill="none" stroke="#5a7e67" cx="1217.3" cy="-690.417" rx="4.00001" ry="4.00001"/>
<polygon fill="#5a7e67" stroke="#5a7e67" points="1238.3,-576.432 1244.54,-567.413 1239.21,-571.515 1240.12,-566.598 1240.12,-566.598 1240.12,-566.598 1239.21,-571.515 1235.69,-565.782 1238.3,-576.432 1238.3,-576.432"/>
</g>
<!-- ActiveRecord::Base -->
<g id="node14" class="node"><title>ActiveRecord::Base</title>
<ellipse fill="none" stroke="black" cx="944.226" cy="-938.5" rx="81.1422" ry="18"/>
<text text-anchor="middle" x="944.226" y="-934.3" font-family="Times,serif" font-size="14.00">ActiveRecord::Base</text>
</g>
<!-- ActiveRecord::Base&#45;&gt;Accident -->
<g id="edge1" class="edge"><title>ActiveRecord::Base&#45;&gt;Accident</title>
<path fill="none" stroke="black" d="M912.135,-921.765C895.314,-914.317 874.12,-906.158 854.226,-902 703.269,-870.445 295.86,-940.215 161.226,-865 148.404,-857.837 136.923,-847.851 126.859,-836.76"/>
</g>
<!-- ActiveRecord::Base&#45;&gt;Attraction -->
<g id="edge2" class="edge"><title>ActiveRecord::Base&#45;&gt;Attraction</title>
<path fill="none" stroke="black" d="M912.112,-921.875C895.285,-914.456 874.092,-906.29 854.226,-902 736.438,-876.562 416.508,-927.08 313.226,-865 309.489,-862.754 305.895,-860.244 302.443,-857.522"/>
</g>
<!-- ActiveRecord::Base&#45;&gt;Events -->
<g id="edge3" class="edge"><title>ActiveRecord::Base&#45;&gt;Events</title>
<path fill="none" stroke="black" d="M912.111,-921.879C895.283,-914.462 874.091,-906.296 854.226,-902 815.298,-893.582 531.174,-903.102 496.226,-884 475.911,-872.896 458.927,-855.292 445.237,-836.531"/>
</g>
<!-- ActiveRecord::Base&#45;&gt;Flagging -->
<g id="edge4" class="edge"><title>ActiveRecord::Base&#45;&gt;Flagging</title>
<path fill="none" stroke="black" d="M953.066,-920.386C960.132,-905.98 969.732,-884.643 975.226,-865 1012.18,-732.879 1091.45,-363.731 1016.23,-249 985.667,-202.392 945.081,-233.394 901.226,-199 883.891,-185.404 868.414,-166.905 856.086,-149.608"/>
</g>
<!-- ActiveRecord::Base&#45;&gt;Hour -->
<g id="edge5" class="edge"><title>ActiveRecord::Base&#45;&gt;Hour</title>
<path fill="none" stroke="black" d="M1000.68,-925.395C1032.66,-915.21 1069.7,-896.975 1087.23,-865 1118.57,-807.82 1147.53,-392.121 1159.47,-198.832"/>
</g>
<!-- ActiveRecord::Base&#45;&gt;Route -->
<g id="edge10" class="edge"><title>ActiveRecord::Base&#45;&gt;Route</title>
<path fill="none" stroke="black" d="M931.675,-920.427C920.562,-905.31 903.336,-881.877 885.242,-857.264"/>
</g>
<!-- ActiveRecord::Base&#45;&gt;RoutePoint -->
<g id="edge11" class="edge"><title>ActiveRecord::Base&#45;&gt;RoutePoint</title>
<path fill="none" stroke="black" d="M908.192,-922.309C891.859,-915.677 872.216,-908.052 854.226,-902 796.478,-882.574 765.537,-907.853 722.226,-865 637.462,-781.132 607.256,-645.338 596.857,-545.688"/>
</g>
<!-- ActiveRecord::Base&#45;&gt;RouteReview -->
<g id="edge12" class="edge"><title>ActiveRecord::Base&#45;&gt;RouteReview</title>
<path fill="none" stroke="black" d="M910.225,-921.978C893.635,-914.953 873.205,-907.1 854.226,-902 747.45,-873.31 694.384,-934.289 608.226,-865 505.505,-782.391 526.18,-717.622 502.226,-588 474.846,-439.842 443.531,-387.764 502.226,-249 516.43,-215.419 542.355,-185.695 568.877,-161.831"/>
</g>
<!-- ActiveRecord::Base&#45;&gt;User -->
<g id="edge19" class="edge"><title>ActiveRecord::Base&#45;&gt;User</title>
<path fill="none" stroke="black" d="M947.209,-920.489C955.339,-871.421 976.178,-725.499 959.226,-606 958.362,-599.909 957.347,-593.739 956.206,-587.532"/>
</g>
<!-- ActiveRecord::Base&#45;&gt;UserResponse -->
<g id="edge20" class="edge"><title>ActiveRecord::Base&#45;&gt;UserResponse</title>
<path fill="none" stroke="black" d="M994.738,-924.327C1015.3,-916.229 1037.05,-903.532 1049.23,-884 1126,-760.842 1058.11,-376.124 1059.23,-231 1059.27,-224.778 1060.91,-222.991 1059.23,-217 1054.07,-198.642 1045.14,-180.31 1035.31,-163.803"/>
</g>
<!-- ActiveRecord::Base&#45;&gt;Weather -->
<g id="edge22" class="edge"><title>ActiveRecord::Base&#45;&gt;Weather</title>
<path fill="none" stroke="black" d="M1013.67,-929.101C1049.83,-921.905 1093.09,-908.589 1125.23,-884 1150.57,-864.612 1169.85,-834.835 1183.24,-808.516"/>
</g>
<!-- ActiveRecord::Base&#45;&gt;WeatherPeriod -->
<g id="edge23" class="edge"><title>ActiveRecord::Base&#45;&gt;WeatherPeriod</title>
<path fill="none" stroke="black" d="M1020.21,-932.064C1109.59,-923.905 1249.92,-904.966 1282.23,-865 1348.57,-782.921 1339.97,-661.865 1317.45,-566.652"/>
</g>
</g>
</svg>
